<?xml version="1.0" encoding="UTF-8" standalone="no"?>
<!-- Created with Inkscape (http://www.inkscape.org/) -->
<svg
   xmlns:dc="http://purl.org/dc/elements/1.1/"
   xmlns:cc="http://web.resource.org/cc/"
   xmlns:rdf="http://www.w3.org/1999/02/22-rdf-syntax-ns#"
   xmlns:svg="http://www.w3.org/2000/svg"
   xmlns="http://www.w3.org/2000/svg"
   xmlns:xlink="http://www.w3.org/1999/xlink"
   xmlns:sodipodi="http://inkscape.sourceforge.net/DTD/sodipodi-0.dtd"
   xmlns:inkscape="http://www.inkscape.org/namespaces/inkscape"
   width="1600px"
   height="1200px"
   id="svg1616"
   sodipodi:version="0.32"
   inkscape:version="0.43"
   sodipodi:docbase="/home/rene/svn/bardinux/doc/svg"
   sodipodi:docname="cduniv.svg">
  <defs
     id="defs1618" />
  <sodipodi:namedview
     id="base"
     pagecolor="#ffffff"
     bordercolor="#666666"
     borderopacity="1.0"
     inkscape:pageopacity="0.0"
     inkscape:pageshadow="2"
     inkscape:zoom="0.97698586"
     inkscape:cx="603.66295"
     inkscape:cy="949.08917"
     inkscape:current-layer="layer1"
     inkscape:document-units="px"
     inkscape:window-width="1272"
     inkscape:window-height="995"
     inkscape:window-x="0"
     inkscape:window-y="0"
     showguides="true"
     inkscape:guide-bbox="true" />
  <metadata
     id="metadata1621">
    <rdf:RDF>
      <cc:Work
         rdf:about="">
        <dc:format>image/svg+xml</dc:format>
        <dc:type
           rdf:resource="http://purl.org/dc/dcmitype/StillImage" />
      </cc:Work>
    </rdf:RDF>
  </metadata>
  <g
     id="layer1"
     inkscape:label="Layer 1"
     inkscape:groupmode="layer">
    <g
       id="g5658"
       transform="matrix(1.069048,0.000000,0.000000,1.069048,-98.75878,-36.73196)">
      <rect
         style="opacity:1.0000000;fill:#ffffff;fill-opacity:1.0000000;fill-rule:nonzero;stroke:#000000;stroke-width:2.5309644;stroke-linecap:round;stroke-miterlimit:4.0000000;stroke-dasharray:none;stroke-opacity:1.0000000"
         id="rect9184"
         width="457.08270"
         height="457.08270"
         x="1094.0568"
         y="69.796844"
         rx="0.87900639"
         ry="0.00000000" />
      <g
         id="g13023"
         transform="matrix(0.801313,0.000000,0.000000,0.801313,814.8000,-468.6768)">
        <g
           id="g13025"
           transform="matrix(0.581919,0.000000,0.000000,0.581919,266.6110,1269.300)">
          <path
             id="path13027"
             d="M 553.84380,-693.65625 C 498.80820,-693.65625 454.15620,-648.97300 454.15630,-593.93750 C 454.15630,-538.90199 498.80830,-494.25001 553.84380,-494.25000 C 608.87930,-494.25000 653.56250,-538.90199 653.56250,-593.93750 C 653.56250,-648.97301 608.87930,-693.65625 553.84380,-693.65625 z M 552.43750,-655.46875 C 587.17620,-655.46875 615.37500,-627.26999 615.37500,-592.53125 C 615.37500,-557.79251 587.17620,-529.59375 552.43750,-529.59375 C 517.69870,-529.59375 489.50000,-557.79251 489.50000,-592.53125 C 489.50010,-627.27000 517.69880,-655.46875 552.43750,-655.46875 z "
             style="opacity:1.0000000;fill:#821c6b;fill-opacity:1.0000000;fill-rule:nonzero;stroke:none;stroke-linecap:round;stroke-opacity:1.0000000" />
          <g
             transform="translate(290.0000,-736.0000)"
             id="g13029">
            <rect
               y="310.50000"
               x="217.00000"
               height="16.250000"
               width="101.00000"
               id="rect13031"
               style="opacity:1.0000000;fill:#000000;fill-opacity:1.0000000;fill-rule:nonzero;stroke:none;stroke-linecap:round;stroke-opacity:1.0000000" />
            <path
               sodipodi:nodetypes="ccccccscccccccccc"
               id="path13033"
               d="M 217.25000,304.75000 L 317.75000,304.50000 L 316.50000,256.00000 L 299.75000,233.00000 L 289.25000,202.25000 L 288.50000,145.50000 C 288.50000,145.50000 276.00000,124.75000 275.75000,123.75000 C 275.50000,122.75000 269.50000,143.75000 269.50000,143.75000 L 253.00000,144.00000 L 252.25000,150.75000 L 229.50000,151.25000 L 232.00000,182.25000 L 244.50000,186.00000 L 232.00000,217.25000 L 231.50000,290.75000 L 217.25000,290.75000 L 217.25000,304.75000 z "
               style="fill:#000000;fill-opacity:1.0000000;fill-rule:evenodd;stroke:none;stroke-width:1.0000000px;stroke-linecap:butt;stroke-linejoin:miter;stroke-opacity:1.0000000" />
          </g>
        </g>
        <text
           xml:space="preserve"
           style="font-size:25.260588px;font-style:normal;font-variant:normal;font-weight:normal;font-stretch:normal;text-align:start;line-height:0.00000000%;writing-mode:lr-tb;text-anchor:start;fill:#000000;fill-opacity:1.0000000;stroke:none;stroke-width:1.0000000px;stroke-linecap:butt;stroke-linejoin:miter;stroke-opacity:1.0000000;font-family:Vipnagorgialla"
           x="626.46368"
           y="1017.7155"
           id="text13035"
           sodipodi:linespacing="0.00000000%"><tspan
             sodipodi:role="line"
             id="tspan13037"
             x="626.46368"
             y="1017.7155">BARDINUX</tspan></text>
        <text
           xml:space="preserve"
           style="font-size:8.5275745px;font-style:normal;font-variant:normal;font-weight:normal;font-stretch:normal;text-align:start;line-height:125.00000%;writing-mode:lr-tb;text-anchor:start;fill:#000000;fill-opacity:1.0000000;stroke:none;stroke-width:1.0000000px;stroke-linecap:butt;stroke-linejoin:miter;stroke-opacity:1.0000000;font-family:Trebuchet MS"
           x="627.02692"
           y="1029.3616"
           id="text13039"
           sodipodi:linespacing="125.00000%"><tspan
             sodipodi:role="line"
             id="tspan13041"
             x="627.02692"
             y="1029.3616">SECRETARIADO DEL SOFTWARE LIBRE</tspan></text>
        <text
           xml:space="preserve"
           style="font-size:16.434830px;font-style:normal;font-variant:normal;font-weight:normal;font-stretch:normal;text-align:start;line-height:125.00000%;writing-mode:lr-tb;text-anchor:start;fill:#000000;fill-opacity:1.0000000;stroke:none;stroke-width:1.0000000px;stroke-linecap:butt;stroke-linejoin:miter;stroke-opacity:1.0000000;font-family:Trebuchet MS"
           x="560.12634"
           y="1047.7943"
           id="text13043"
           sodipodi:linespacing="125.00000%"><tspan
             sodipodi:role="line"
             id="tspan13045"
             x="560.12634"
             y="1047.7943">UNIVERSIDAD DE LA LAGUNA</tspan></text>
      </g>
    </g>
    <rect
       style="fill:#ffffff;fill-opacity:1;fill-rule:nonzero;stroke:#000000;stroke-width:2.70640206;stroke-linecap:round;stroke-miterlimit:4;stroke-dasharray:none;stroke-opacity:1"
       id="rect9138"
       width="488.76611"
       height="488.76611"
       x="38.203617"
       y="38.420437"
       rx="0.93970007"
       ry="0" />
    <rect
       style="opacity:0.84232351;fill:#821c6b;fill-opacity:1;fill-rule:nonzero;stroke:none;stroke-width:6.64699984;stroke-linecap:round;stroke-miterlimit:4;stroke-dasharray:none;stroke-opacity:1"
       id="rect13061"
       width="489.38876"
       height="238.72621"
       x="37.754726"
       y="163.26981"
       rx="0.93970007" />
    <g
       transform="matrix(0.67819,0,0,0.67819,21.5333,651.8878)"
       id="g13047">
      <path
         style="opacity:1;fill:#821c6b;fill-opacity:1;fill-rule:nonzero;stroke:none;stroke-linecap:round;stroke-opacity:1"
         d="M 553.8438,-693.65625 C 498.8082,-693.65625 454.1562,-648.973 454.1563,-593.9375 C 454.1563,-538.90199 498.8083,-494.25001 553.8438,-494.25 C 608.8793,-494.25 653.5625,-538.90199 653.5625,-593.9375 C 653.5625,-648.97301 608.8793,-693.65625 553.8438,-693.65625 z M 552.4375,-655.46875 C 587.1762,-655.46875 615.375,-627.26999 615.375,-592.53125 C 615.375,-557.79251 587.1762,-529.59375 552.4375,-529.59375 C 517.6987,-529.59375 489.5,-557.79251 489.5,-592.53125 C 489.5001,-627.27 517.6988,-655.46875 552.4375,-655.46875 z "
         id="path13049" />
      <g
         id="g13051"
         transform="translate(290,-736)">
        <rect
           style="opacity:1;fill:#000000;fill-opacity:1;fill-rule:nonzero;stroke:none;stroke-linecap:round;stroke-opacity:1"
           id="rect13053"
           width="101"
           height="16.25"
           x="217"
           y="310.5" />
        <path
           style="fill:#000000;fill-opacity:1;fill-rule:evenodd;stroke:none;stroke-width:1px;stroke-linecap:butt;stroke-linejoin:miter;stroke-opacity:1"
           d="M 217.25,304.75 L 317.75,304.5 L 316.5,256 L 299.75,233 L 289.25,202.25 L 288.5,145.5 C 288.5,145.5 276,124.75 275.75,123.75 C 275.5,122.75 269.5,143.75 269.5,143.75 L 253,144 L 252.25,150.75 L 229.5,151.25 L 232,182.25 L 244.5,186 L 232,217.25 L 231.5,290.75 L 217.25,290.75 L 217.25,304.75 z "
           id="path13055"
           sodipodi:nodetypes="ccccccscccccccccc" />
      </g>
    </g>
    <text
       xml:space="preserve"
       style="font-size:45.2939682px;font-style:normal;font-variant:normal;font-weight:normal;font-stretch:normal;text-align:start;line-height:0%;writing-mode:lr-tb;text-anchor:start;fill:#ffffff;fill-opacity:1;stroke:none;stroke-width:1px;stroke-linecap:butt;stroke-linejoin:miter;stroke-opacity:1;font-family:Vipnagorgialla"
       x="-404.75348"
       y="520.36981"
       id="text13789"
       sodipodi:linespacing="0%"
       transform="matrix(-2.130454e-3,-0.999998,0.999998,-2.130454e-3,0,0)"><tspan
         sodipodi:role="line"
         id="tspan13791"
         x="-404.75348"
         y="520.36981">BARDINUX</tspan></text>
    <g
       style="opacity:0.1120332;fill:#000000;fill-opacity:1"
       transform="matrix(0.67819,0,0,0.67819,-115.6908,652.0728)"
       id="g15981">
      <path
         style="opacity:1;fill:#000000;fill-opacity:1;fill-rule:nonzero;stroke:none;stroke-linecap:round;stroke-opacity:1"
         d="M 553.8438,-693.65625 C 498.8082,-693.65625 454.1562,-648.973 454.1563,-593.9375 C 454.1563,-538.90199 498.8083,-494.25001 553.8438,-494.25 C 608.8793,-494.25 653.5625,-538.90199 653.5625,-593.9375 C 653.5625,-648.97301 608.8793,-693.65625 553.8438,-693.65625 z M 552.4375,-655.46875 C 587.1762,-655.46875 615.375,-627.26999 615.375,-592.53125 C 615.375,-557.79251 587.1762,-529.59375 552.4375,-529.59375 C 517.6987,-529.59375 489.5,-557.79251 489.5,-592.53125 C 489.5001,-627.27 517.6988,-655.46875 552.4375,-655.46875 z "
         id="path15983" />
      <g
         style="fill:#000000;fill-opacity:1"
         id="g15985"
         transform="translate(290,-736)">
        <rect
           style="opacity:1;fill:#000000;fill-opacity:1;fill-rule:nonzero;stroke:none;stroke-linecap:round;stroke-opacity:1"
           id="rect15987"
           width="101"
           height="16.25"
           x="217"
           y="310.5" />
        <path
           style="fill:#000000;fill-opacity:1;fill-rule:evenodd;stroke:none;stroke-width:1px;stroke-linecap:butt;stroke-linejoin:miter;stroke-opacity:1"
           d="M 217.25,304.75 L 317.75,304.5 L 316.5,256 L 299.75,233 L 289.25,202.25 L 288.5,145.5 C 288.5,145.5 276,124.75 275.75,123.75 C 275.5,122.75 269.5,143.75 269.5,143.75 L 253,144 L 252.25,150.75 L 229.5,151.25 L 232,182.25 L 244.5,186 L 232,217.25 L 231.5,290.75 L 217.25,290.75 L 217.25,304.75 z "
           id="path15989"
           sodipodi:nodetypes="ccccccscccccccccc" />
      </g>
    </g>
    <g
       id="g17490"
       transform="matrix(0.67819,0,0,0.67819,-252.7145,652.0728)"
       style="opacity:0.06638997;fill:#000000;fill-opacity:1">
      <path
         id="path17492"
         d="M 553.8438,-693.65625 C 498.8082,-693.65625 454.1562,-648.973 454.1563,-593.9375 C 454.1563,-538.90199 498.8083,-494.25001 553.8438,-494.25 C 608.8793,-494.25 653.5625,-538.90199 653.5625,-593.9375 C 653.5625,-648.97301 608.8793,-693.65625 553.8438,-693.65625 z M 552.4375,-655.46875 C 587.1762,-655.46875 615.375,-627.26999 615.375,-592.53125 C 615.375,-557.79251 587.1762,-529.59375 552.4375,-529.59375 C 517.6987,-529.59375 489.5,-557.79251 489.5,-592.53125 C 489.5001,-627.27 517.6988,-655.46875 552.4375,-655.46875 z "
         style="opacity:1;fill:#000000;fill-opacity:1;fill-rule:nonzero;stroke:none;stroke-linecap:round;stroke-opacity:1" />
      <g
         transform="translate(290,-736)"
         id="g17494"
         style="fill:#000000;fill-opacity:1">
        <rect
           y="310.5"
           x="217"
           height="16.25"
           width="101"
           id="rect17496"
           style="opacity:1;fill:#000000;fill-opacity:1;fill-rule:nonzero;stroke:none;stroke-linecap:round;stroke-opacity:1" />
        <path
           sodipodi:nodetypes="ccccccscccccccccc"
           id="path17498"
           d="M 217.25,304.75 L 317.75,304.5 L 316.5,256 L 299.75,233 L 289.25,202.25 L 288.5,145.5 C 288.5,145.5 276,124.75 275.75,123.75 C 275.5,122.75 269.5,143.75 269.5,143.75 L 253,144 L 252.25,150.75 L 229.5,151.25 L 232,182.25 L 244.5,186 L 232,217.25 L 231.5,290.75 L 217.25,290.75 L 217.25,304.75 z "
           style="fill:#000000;fill-opacity:1;fill-rule:evenodd;stroke:none;stroke-width:1px;stroke-linecap:butt;stroke-linejoin:miter;stroke-opacity:1" />
      </g>
    </g>
    <g
       id="g5544"
       transform="matrix(1.069048,0,0,1.069048,-5.639404,-55.30168)">
      <text
         xml:space="preserve"
         style="font-size:15.11595726px;font-style:normal;font-variant:normal;font-weight:normal;font-stretch:normal;text-align:start;line-height:125%;writing-mode:lr-tb;text-anchor:start;opacity:1;fill:#000000;fill-opacity:1;stroke:none;stroke-width:1px;stroke-linecap:butt;stroke-linejoin:miter;stroke-opacity:1;font-family:Trebuchet MS"
         x="48.677174"
         y="447.91666"
         id="text13013"
         sodipodi:linespacing="125%"><tspan
           sodipodi:role="line"
           id="tspan13015"
           x="48.677174"
           y="447.91666">SECRETARIADO DEL SOFTWARE LIBRE</tspan></text>
      <text
         xml:space="preserve"
         style="font-size:18.86069679px;font-style:normal;font-variant:normal;font-weight:bold;font-stretch:normal;text-align:start;line-height:125%;writing-mode:lr-tb;text-anchor:start;opacity:1;fill:#000000;fill-opacity:1;stroke:none;stroke-width:1px;stroke-linecap:butt;stroke-linejoin:miter;stroke-opacity:1;font-family:Trebuchet MS"
         x="47.76981"
         y="467.81668"
         id="text13017"
         sodipodi:linespacing="125%"><tspan
           sodipodi:role="line"
           id="tspan13019"
           x="47.76981"
           y="467.81668">UNIVERSIDAD DE LA LAGUNA</tspan></text>
    </g>
    <g
       id="g5596"
       transform="translate(-15.92281,251.8696)">
      <g
         transform="matrix(0.383184,0.000000,0.000000,0.383184,35.81166,452.3826)"
         id="g5590">
        <text
           sodipodi:linespacing="125.00000%"
           id="text1667"
           y="710.36951"
           x="148.74298"
           style="font-size:26.789179px;font-style:normal;font-variant:normal;font-weight:normal;font-stretch:normal;text-align:start;line-height:125.00000%;writing-mode:lr-tb;text-anchor:start;opacity:1.0000000;fill:#000000;fill-opacity:1.0000000;stroke:none;stroke-width:1.0000000px;stroke-linecap:butt;stroke-linejoin:miter;stroke-opacity:1.0000000;font-family:Trebuchet MS"
           xml:space="preserve"><tspan
             y="710.36951"
             x="148.74298"
             id="tspan1669"
             sodipodi:role="line">SECRETARIADO DEL SOFTWARE LIBRE</tspan></text>
        <text
           sodipodi:linespacing="125.00000%"
           id="text1671"
           y="745.63715"
           x="147.13484"
           style="font-size:33.425774px;font-style:normal;font-variant:normal;font-weight:bold;font-stretch:normal;text-align:start;line-height:125.00000%;writing-mode:lr-tb;text-anchor:start;opacity:1.0000000;fill:#000000;fill-opacity:1.0000000;stroke:none;stroke-width:1.0000000px;stroke-linecap:butt;stroke-linejoin:miter;stroke-opacity:1.0000000;font-family:Trebuchet MS"
           xml:space="preserve"><tspan
             y="745.63715"
             x="147.13484"
             id="tspan1673"
             sodipodi:role="line">UNIVERSIDAD DE LA LAGUNA</tspan></text>
      </g>
      <g
         transform="matrix(0.217036,0.000000,0.000000,0.217036,-45.93719,827.9863)"
         id="g1676">
        <path
           style="opacity:1.0000000;fill:#821c6b;fill-opacity:1.0000000;fill-rule:nonzero;stroke:none;stroke-linecap:round;stroke-opacity:1.0000000"
           d="M 553.84380,-693.65625 C 498.80820,-693.65625 454.15620,-648.97300 454.15630,-593.93750 C 454.15630,-538.90199 498.80830,-494.25001 553.84380,-494.25000 C 608.87930,-494.25000 653.56250,-538.90199 653.56250,-593.93750 C 653.56250,-648.97301 608.87930,-693.65625 553.84380,-693.65625 z M 552.43750,-655.46875 C 587.17620,-655.46875 615.37500,-627.26999 615.37500,-592.53125 C 615.37500,-557.79251 587.17620,-529.59375 552.43750,-529.59375 C 517.69870,-529.59375 489.50000,-557.79251 489.50000,-592.53125 C 489.50010,-627.27000 517.69880,-655.46875 552.43750,-655.46875 z "
           id="path1678" />
        <g
           id="g1680"
           transform="translate(290.0000,-736.0000)">
          <rect
             style="opacity:1.0000000;fill:#000000;fill-opacity:1.0000000;fill-rule:nonzero;stroke:none;stroke-linecap:round;stroke-opacity:1.0000000"
             id="rect1682"
             width="101.00000"
             height="16.250000"
             x="217.00000"
             y="310.50000" />
          <path
             style="fill:#000000;fill-opacity:1.0000000;fill-rule:evenodd;stroke:none;stroke-width:1.0000000px;stroke-linecap:butt;stroke-linejoin:miter;stroke-opacity:1.0000000"
             d="M 217.25000,304.75000 L 317.75000,304.50000 L 316.50000,256.00000 L 299.75000,233.00000 L 289.25000,202.25000 L 288.50000,145.50000 C 288.50000,145.50000 276.00000,124.75000 275.75000,123.75000 C 275.50000,122.75000 269.50000,143.75000 269.50000,143.75000 L 253.00000,144.00000 L 252.25000,150.75000 L 229.50000,151.25000 L 232.00000,182.25000 L 244.50000,186.00000 L 232.00000,217.25000 L 231.50000,290.75000 L 217.25000,290.75000 L 217.25000,304.75000 z "
             id="path1684"
             sodipodi:nodetypes="ccccccscccccccccc" />
        </g>
      </g>
    </g>
    <g
       id="g3187"
       transform="matrix(0.801313,0.000000,0.000000,0.801313,-389.1228,330.3582)">
      <g
         id="g3189"
         transform="matrix(0.581919,0.000000,0.000000,0.581919,266.6110,1269.300)">
        <path
           id="path3191"
           d="M 553.84380,-693.65625 C 498.80820,-693.65625 454.15620,-648.97300 454.15630,-593.93750 C 454.15630,-538.90199 498.80830,-494.25001 553.84380,-494.25000 C 608.87930,-494.25000 653.56250,-538.90199 653.56250,-593.93750 C 653.56250,-648.97301 608.87930,-693.65625 553.84380,-693.65625 z M 552.43750,-655.46875 C 587.17620,-655.46875 615.37500,-627.26999 615.37500,-592.53125 C 615.37500,-557.79251 587.17620,-529.59375 552.43750,-529.59375 C 517.69870,-529.59375 489.50000,-557.79251 489.50000,-592.53125 C 489.50010,-627.27000 517.69880,-655.46875 552.43750,-655.46875 z "
           style="opacity:1.0000000;fill:#821c6b;fill-opacity:1.0000000;fill-rule:nonzero;stroke:none;stroke-linecap:round;stroke-opacity:1.0000000" />
        <g
           transform="translate(290.0000,-736.0000)"
           id="g3193">
          <rect
             y="310.50000"
             x="217.00000"
             height="16.250000"
             width="101.00000"
             id="rect3195"
             style="opacity:1.0000000;fill:#000000;fill-opacity:1.0000000;fill-rule:nonzero;stroke:none;stroke-linecap:round;stroke-opacity:1.0000000" />
          <path
             sodipodi:nodetypes="ccccccscccccccccc"
             id="path3197"
             d="M 217.25000,304.75000 L 317.75000,304.50000 L 316.50000,256.00000 L 299.75000,233.00000 L 289.25000,202.25000 L 288.50000,145.50000 C 288.50000,145.50000 276.00000,124.75000 275.75000,123.75000 C 275.50000,122.75000 269.50000,143.75000 269.50000,143.75000 L 253.00000,144.00000 L 252.25000,150.75000 L 229.50000,151.25000 L 232.00000,182.25000 L 244.50000,186.00000 L 232.00000,217.25000 L 231.50000,290.75000 L 217.25000,290.75000 L 217.25000,304.75000 z "
             style="fill:#000000;fill-opacity:1.0000000;fill-rule:evenodd;stroke:none;stroke-width:1.0000000px;stroke-linecap:butt;stroke-linejoin:miter;stroke-opacity:1.0000000" />
        </g>
      </g>
      <text
         xml:space="preserve"
         style="font-size:25.260588px;font-style:normal;font-variant:normal;font-weight:normal;font-stretch:normal;text-align:start;line-height:0.00000000%;writing-mode:lr-tb;text-anchor:start;fill:#000000;fill-opacity:1.0000000;stroke:none;stroke-width:1.0000000px;stroke-linecap:butt;stroke-linejoin:miter;stroke-opacity:1.0000000;font-family:Vipnagorgialla"
         x="626.46368"
         y="1017.7155"
         id="text3199"
         sodipodi:linespacing="0.00000000%"><tspan
           sodipodi:role="line"
           id="tspan3201"
           x="626.46368"
           y="1017.7155">BARDINUX</tspan></text>
      <text
         xml:space="preserve"
         style="font-size:8.5275745px;font-style:normal;font-variant:normal;font-weight:normal;font-stretch:normal;text-align:start;line-height:125.00000%;writing-mode:lr-tb;text-anchor:start;fill:#000000;fill-opacity:1.0000000;stroke:none;stroke-width:1.0000000px;stroke-linecap:butt;stroke-linejoin:miter;stroke-opacity:1.0000000;font-family:Trebuchet MS"
         x="627.02692"
         y="1029.3616"
         id="text3203"
         sodipodi:linespacing="125.00000%"><tspan
           sodipodi:role="line"
           id="tspan3205"
           x="627.02692"
           y="1029.3616">SECRETARIADO DEL SOFTWARE LIBRE</tspan></text>
      <text
         xml:space="preserve"
         style="font-size:16.434830px;font-style:normal;font-variant:normal;font-weight:normal;font-stretch:normal;text-align:start;line-height:125.00000%;writing-mode:lr-tb;text-anchor:start;fill:#000000;fill-opacity:1.0000000;stroke:none;stroke-width:1.0000000px;stroke-linecap:butt;stroke-linejoin:miter;stroke-opacity:1.0000000;font-family:Trebuchet MS"
         x="560.12634"
         y="1047.7943"
         id="text3207"
         sodipodi:linespacing="125.00000%"><tspan
           sodipodi:role="line"
           id="tspan3209"
           x="560.12634"
           y="1047.7943">UNIVERSIDAD DE LA LAGUNA</tspan></text>
    </g>
    <image
       id="image3239"
       height="244.10388"
       width="182.17477"
       sodipodi:absref="D:\Mis imágenes\trabajoencurso\inkscape\png\paleta.png"
       xlink:href="D:\Mis imágenes\trabajoencurso\inkscape\png\paleta.png"
       x="1377.4534"
       y="903.52106" />
    <rect
       style="opacity:1.0000000;fill:#ffffff;fill-opacity:1.0000000;fill-rule:nonzero;stroke:#000000;stroke-width:2.7057223;stroke-linecap:round;stroke-miterlimit:4.0000000;stroke-dasharray:none;stroke-opacity:1.0000000"
       id="rect9222"
       width="488.64334"
       height="488.64334"
       x="553.16974"
       y="37.884216"
       rx="0.93970001"
       ry="0.00000000" />
    <path
       id="path9950"
       d="M 795.74956,73.752676 C 677.84124,73.752676 582.15716,169.45686 582.15716,287.36515 C 582.15716,405.27347 677.84124,500.95746 795.74956,500.95746 C 913.65775,500.95746 1009.3619,405.27347 1009.3621,287.36515 C 1009.3621,169.45686 913.65775,73.752676 795.74956,73.752676 z M 796.49457,203.69624 C 842.26014,203.69625 879.39836,240.83448 879.39836,286.59996 C 879.39836,332.36549 842.26014,369.50366 796.49457,369.50366 C 750.72910,369.50366 713.59090,332.36549 713.59090,286.59996 C 713.59090,240.83448 750.72910,203.69624 796.49457,203.69624 z M 795.66898,234.24397 C 766.73464,234.24394 743.25253,257.72605 743.25253,286.66036 C 743.25253,315.59475 766.73464,339.07683 795.66898,339.07683 C 824.60330,339.07683 848.08535,315.59475 848.08535,286.66036 C 848.08544,257.72605 824.60330,234.24397 795.66898,234.24397 z M 794.80305,244.73528 C 817.76516,244.73528 836.40594,263.35595 836.40594,286.31804 C 836.40594,309.28019 817.76516,327.92091 794.80305,327.92091 C 771.84097,327.92091 753.22036,309.28019 753.22036,286.31804 C 753.22036,263.35595 771.84097,244.73528 794.80305,244.73528 z "
       style="opacity:1.0000000;fill:#e6dbd1;fill-opacity:1.0000000;fill-rule:nonzero;stroke:none;stroke-width:1.8566238;stroke-linecap:round;stroke-miterlimit:4.0000000;stroke-dasharray:none;stroke-opacity:1.0000000" />
    <path
       id="path13021"
       d="M 799.21550,141.73430 C 720.54428,141.73430 656.71593,205.60733 656.71593,284.27848 C 656.71593,362.94968 720.54443,426.77803 799.21550,426.77803 C 877.88673,426.77803 941.75967,362.94968 941.75967,284.27848 C 941.75967,205.60730 877.88673,141.73430 799.21550,141.73430 z M 797.20542,196.32190 C 846.86289,196.32190 887.17207,236.63095 887.17207,286.28868 C 887.17207,335.94637 846.86289,376.25545 797.20542,376.25545 C 747.54749,376.25545 707.23848,335.94637 707.23848,286.28868 C 707.23862,236.63095 747.54765,196.32190 797.20542,196.32190 z "
       style="opacity:1.0000000;fill:#821c6b;fill-opacity:1.0000000;fill-rule:nonzero;stroke:none;stroke-linecap:round;stroke-opacity:1.0000000" />
    <path
       style="opacity:0.024896266;fill:none;fill-opacity:1.0000000;fill-rule:nonzero;stroke:#000000;stroke-width:11.593637;stroke-linecap:round;stroke-miterlimit:4.0000000;stroke-dasharray:none;stroke-opacity:1.0000000"
       d="M 796.52362,79.752729 C 682.35443,79.752729 589.70469,172.42193 589.70469,286.59110 C 589.70469,400.76028 682.35443,493.40993 796.52362,493.40993 C 910.69268,493.40993 1003.3618,400.76028 1003.3620,286.59110 C 1003.3620,172.42193 910.69268,79.752729 796.52362,79.752729 z M 797.24501,205.57551 C 841.55924,205.57552 877.51974,241.53601 877.51974,285.85017 C 877.51974,330.16437 841.55924,366.12482 797.24501,366.12482 C 752.93086,366.12482 716.97039,330.16437 716.97039,285.85017 C 716.97039,241.53601 752.93086,205.57551 797.24501,205.57551 z M 796.44559,235.15450 C 768.42882,235.15447 745.69138,257.89192 745.69138,285.90865 C 745.69138,313.92546 768.42882,336.66289 796.44559,336.66289 C 824.46234,336.66289 847.19973,313.92546 847.19973,285.90865 C 847.19981,257.89192 824.46234,235.15450 796.44559,235.15450 z M 795.60712,245.31310 C 817.84107,245.31310 835.89070,263.34328 835.89070,285.57719 C 835.89070,307.81116 817.84107,325.86074 795.60712,325.86074 C 773.37322,325.86074 755.34311,307.81116 755.34311,285.57719 C 755.34311,263.34328 773.37322,245.31310 795.60712,245.31310 z "
       id="path1686" />
    <g
       id="g5558"
       transform="matrix(0.403708,0,0,0.403708,462.2681,188.5765)">
      <text
         sodipodi:linespacing="125%"
         id="text3985"
         y="622.82312"
         x="513.05701"
         style="font-size:30.62411308px;font-style:normal;font-variant:normal;font-weight:normal;font-stretch:normal;text-align:start;line-height:125%;writing-mode:lr-tb;text-anchor:start;opacity:1;fill:#000000;fill-opacity:1;stroke:none;stroke-width:1px;stroke-linecap:butt;stroke-linejoin:miter;stroke-opacity:1;font-family:Trebuchet MS"
         xml:space="preserve"><tspan
           y="622.82312"
           x="513.05701"
           id="tspan3987"
           sodipodi:role="line">SECRETARIADO DEL SOFTWARE LIBRE</tspan></text>
      <text
         sodipodi:linespacing="125%"
         id="text3989"
         y="663.13953"
         x="511.21875"
         style="font-size:38.21075439px;font-style:normal;font-variant:normal;font-weight:bold;font-stretch:normal;text-align:start;line-height:125%;writing-mode:lr-tb;text-anchor:start;opacity:1;fill:#000000;fill-opacity:1;stroke:none;stroke-width:1px;stroke-linecap:butt;stroke-linejoin:miter;stroke-opacity:1;font-family:Trebuchet MS"
         xml:space="preserve"><tspan
           y="663.13953"
           x="511.21875"
           id="tspan3991"
           sodipodi:role="line">UNIVERSIDAD DE LA LAGUNA</tspan></text>
    </g>
    <text
       sodipodi:linespacing="0%"
       id="text5505"
       y="400.20605"
       x="714.69666"
       style="font-size:31.55939865px;font-style:normal;font-variant:normal;font-weight:normal;font-stretch:normal;text-align:start;line-height:0%;writing-mode:lr-tb;text-anchor:start;fill:#e6dbd1;fill-opacity:1;stroke:none;stroke-width:1px;stroke-linecap:butt;stroke-linejoin:miter;stroke-opacity:1;font-family:Vipnagorgialla"
       xml:space="preserve"><tspan
         y="400.20605"
         x="714.69666"
         id="tspan5507"
         sodipodi:role="line">BARDINUX</tspan></text>
    <rect
       style="opacity:1.0000000;fill:#bad405;fill-opacity:1.0000000;fill-rule:nonzero;stroke:none;stroke-width:11.200000;stroke-linecap:round;stroke-miterlimit:4.0000000;stroke-dasharray:none;stroke-opacity:1.0000000"
       id="rect5675"
       width="43.425816"
       height="43.425816"
       x="1378.0459"
       y="856.93610"
       rx="0.56106788" />
    <g
       id="g5685"
       transform="matrix(0.846817,0.000000,0.000000,0.846817,-111.5033,1517.800)">
      <path
         id="path5687"
         d="M 553.84380,-693.65625 C 498.80820,-693.65625 454.15620,-648.97300 454.15630,-593.93750 C 454.15630,-538.90199 498.80830,-494.25001 553.84380,-494.25000 C 608.87930,-494.25000 653.56250,-538.90199 653.56250,-593.93750 C 653.56250,-648.97301 608.87930,-693.65625 553.84380,-693.65625 z M 552.43750,-655.46875 C 587.17620,-655.46875 615.37500,-627.26999 615.37500,-592.53125 C 615.37500,-557.79251 587.17620,-529.59375 552.43750,-529.59375 C 517.69870,-529.59375 489.50000,-557.79251 489.50000,-592.53125 C 489.50010,-627.27000 517.69880,-655.46875 552.43750,-655.46875 z "
         style="opacity:1.0000000;fill:#821c6b;fill-opacity:1.0000000;fill-rule:nonzero;stroke:none;stroke-linecap:round;stroke-opacity:1.0000000" />
      <g
         transform="translate(290.0000,-736.0000)"
         id="g5689">
        <rect
           y="310.50000"
           x="217.00000"
           height="16.250000"
           width="101.00000"
           id="rect5691"
           style="opacity:1.0000000;fill:#000000;fill-opacity:1.0000000;fill-rule:nonzero;stroke:none;stroke-linecap:round;stroke-opacity:1.0000000" />
        <path
           sodipodi:nodetypes="ccccccscccccccccc"
           id="path5693"
           d="M 217.25000,304.75000 L 317.75000,304.50000 L 316.50000,256.00000 L 299.75000,233.00000 L 289.25000,202.25000 L 288.50000,145.50000 C 288.50000,145.50000 276.00000,124.75000 275.75000,123.75000 C 275.50000,122.75000 269.50000,143.75000 269.50000,143.75000 L 253.00000,144.00000 L 252.25000,150.75000 L 229.50000,151.25000 L 232.00000,182.25000 L 244.50000,186.00000 L 232.00000,217.25000 L 231.50000,290.75000 L 217.25000,290.75000 L 217.25000,304.75000 z "
           style="fill:#000000;fill-opacity:1.0000000;fill-rule:evenodd;stroke:none;stroke-width:1.0000000px;stroke-linecap:butt;stroke-linejoin:miter;stroke-opacity:1.0000000" />
      </g>
    </g>
    <g
       style="opacity:0.066389985;fill:#000000;fill-opacity:1.0000000"
       transform="matrix(0.254917,0.000000,0.000000,0.254917,485.2355,422.7367)"
       id="g5709">
      <path
         style="opacity:1.0000000;fill:#000000;fill-opacity:1.0000000;fill-rule:nonzero;stroke:none;stroke-linecap:round;stroke-opacity:1.0000000"
         d="M 553.84380,-693.65625 C 498.80820,-693.65625 454.15620,-648.97300 454.15630,-593.93750 C 454.15630,-538.90199 498.80830,-494.25001 553.84380,-494.25000 C 608.87930,-494.25000 653.56250,-538.90199 653.56250,-593.93750 C 653.56250,-648.97301 608.87930,-693.65625 553.84380,-693.65625 z M 552.43750,-655.46875 C 587.17620,-655.46875 615.37500,-627.26999 615.37500,-592.53125 C 615.37500,-557.79251 587.17620,-529.59375 552.43750,-529.59375 C 517.69870,-529.59375 489.50000,-557.79251 489.50000,-592.53125 C 489.50010,-627.27000 517.69880,-655.46875 552.43750,-655.46875 z "
         id="path5711" />
      <g
         style="fill:#000000;fill-opacity:1.0000000"
         id="g5713"
         transform="translate(290.0000,-736.0000)">
        <rect
           style="opacity:1.0000000;fill:#000000;fill-opacity:1.0000000;fill-rule:nonzero;stroke:none;stroke-linecap:round;stroke-opacity:1.0000000"
           id="rect5715"
           width="101.00000"
           height="16.250000"
           x="217.00000"
           y="310.50000" />
        <path
           style="fill:#000000;fill-opacity:1.0000000;fill-rule:evenodd;stroke:none;stroke-width:1.0000000px;stroke-linecap:butt;stroke-linejoin:miter;stroke-opacity:1.0000000"
           d="M 217.25000,304.75000 L 317.75000,304.50000 L 316.50000,256.00000 L 299.75000,233.00000 L 289.25000,202.25000 L 288.50000,145.50000 C 288.50000,145.50000 276.00000,124.75000 275.75000,123.75000 C 275.50000,122.75000 269.50000,143.75000 269.50000,143.75000 L 253.00000,144.00000 L 252.25000,150.75000 L 229.50000,151.25000 L 232.00000,182.25000 L 244.50000,186.00000 L 232.00000,217.25000 L 231.50000,290.75000 L 217.25000,290.75000 L 217.25000,304.75000 z "
           id="path5717"
           sodipodi:nodetypes="ccccccscccccccccc" />
      </g>
    </g>
    <path
       transform="matrix(0.141105,0.000000,0.000000,0.141105,1440.281,764.0711)"
       d="M 820.74787 853.31726 A 117.97346 117.97346 0 1 1  584.80096,853.31726 A 117.97346 117.97346 0 1 1  820.74787 853.31726 z"
       sodipodi:ry="117.97346"
       sodipodi:rx="117.97346"
       sodipodi:cy="853.31726"
       sodipodi:cx="702.77441"
       id="path3981"
       style="opacity:1.0000000;fill:#bad405;fill-opacity:1.0000000;fill-rule:nonzero;stroke:none;stroke-width:11.200000;stroke-linecap:round;stroke-miterlimit:4.0000000;stroke-dasharray:none;stroke-opacity:1.0000000"
       sodipodi:type="arc" />
    <image
       id="image1491"
       height="35.065403"
       width="124.25861"
       sodipodi:absref="/home/rene/svn/bardinux/doc/logos-png/oficina_de_ciencia_tecnologia_e_innovacion.png"
       xlink:href="/home/rene/svn/bardinux/doc/logos-png/oficina_de_ciencia_tecnologia_e_innovacion.png"
       x="1429.0773"
       y="482.04816" />
    <image
       id="image1531"
       height="31.759953"
       width="169.66777"
       sodipodi:absref="/home/rene/svn/bardinux/doc/logos-png/ull_color_horizontal.jpg"
       xlink:href="/home/rene/svn/bardinux/doc/logos-png/ull_color_horizontal.jpg"
       x="1079.2328"
       y="485.35361" />
    <text
       sodipodi:linespacing="125%"
       id="text1601"
       y="517.55469"
       x="230.10706"
       style="font-size:16.15968323px;font-style:normal;font-variant:normal;font-weight:normal;font-stretch:normal;text-align:start;line-height:125%;writing-mode:lr-tb;text-anchor:start;fill:#000000;fill-opacity:1;stroke:none;stroke-width:1px;stroke-linecap:butt;stroke-linejoin:miter;stroke-opacity:1;font-family:Trebuchet MS"
       xml:space="preserve"><tspan
         sodipodi:role="line"
         id="tspan1615"
         x="230.10706"
         y="517.55469">DISTRIBUCIÓN DE LINUX DE LA ULL</tspan></text>
    <image
       id="image1638"
       height="35.990345"
       width="32.917999"
       sodipodi:absref="/home/rene/svn/bardinux/doc/logos-png/ccti.png"
       xlink:href="/home/rene/svn/bardinux/doc/logos-png/ccti.png"
       x="1364.4161"
       y="481.12323" />
    <g
       style="fill-rule:evenodd"
       id="Capa_x0020_1"
       transform="matrix(0.615668,0,0,0.615668,1253.671,429.5606)">
  <metadata
   id="CorelCorpID_0Corel-Layer" />

  <circle
   class="fil0"
   cx="70.946503"
   cy="113.661"
   r="27.1359"
   id="circle4441"
   sodipodi:cx="70.946503"
   sodipodi:cy="113.661"
   sodipodi:rx="27.1359"
   sodipodi:ry="27.1359"
   style="fill:#9f257b" />

  <circle
   class="fil1 str0"
   cx="99.772697"
   cy="113.661"
   r="27.1359"
   id="circle4443"
   sodipodi:cx="99.772697"
   sodipodi:cy="113.661"
   sodipodi:rx="27.1359"
   sodipodi:ry="27.1359"
   style="fill:#ffffff;stroke:#9f257b;stroke-width:2.82220006" />

  <text
   x="53.359901"
   y="123.301"
   class="fil1 fnt0"
   id="text4445"
   style="font-size:27.74920082px;font-weight:normal;fill:#ffffff;font-family:Humnst777 Blk BT">S</text>

  <g
   id="_20824072">
   <text
   x="81.361298"
   y="124.343"
   id="_20827880"
   class="fil2 fnt1"
   style="font-size:30.84840012px;font-style:italic;font-weight:bold;fill:#44515b;font-family:Humnst777 BT">S</text>

   <text
   x="102.855"
   y="124.359"
   id="_20824048"
   class="fil2 fnt1"
   style="font-size:30.84840012px;font-style:italic;font-weight:bold;fill:#44515b;font-family:Humnst777 BT">L</text>

  </g>

 </g>
    <text
       xml:space="preserve"
       style="font-size:15.42598724px;font-style:normal;font-variant:normal;font-weight:bold;font-stretch:normal;text-align:start;line-height:125%;writing-mode:lr-tb;text-anchor:start;fill:#000000;fill-opacity:1;stroke:none;stroke-width:1px;stroke-linecap:butt;stroke-linejoin:miter;stroke-opacity:1;font-family:Trebuchet MS"
       x="1225.5927"
       y="58.092381"
       id="text4487"
       sodipodi:linespacing="125%"><tspan
         sodipodi:role="line"
         id="tspan4495"
         x="1225.5927"
         y="58.092381">http://www.ssl.ull.es</tspan></text>
  </g>
</svg>
