<?xml version="1.0" encoding="UTF-8" standalone="no"?>
<!-- Created with Inkscape (http://www.inkscape.org/) -->
<svg
   xmlns:dc="http://purl.org/dc/elements/1.1/"
   xmlns:cc="http://creativecommons.org/ns#"
   xmlns:rdf="http://www.w3.org/1999/02/22-rdf-syntax-ns#"
   xmlns:svg="http://www.w3.org/2000/svg"
   xmlns="http://www.w3.org/2000/svg"
   xmlns:xlink="http://www.w3.org/1999/xlink"
   xmlns:sodipodi="http://sodipodi.sourceforge.net/DTD/sodipodi-0.dtd"
   xmlns:inkscape="http://www.inkscape.org/namespaces/inkscape"
   inkscape:export-ydpi="300.00000"
   inkscape:export-xdpi="300.00000"
   inkscape:export-filename="/home/alberto/logotipo_gulic.svg-300dpi.png"
   width="296.99999mm"
   height="105.00000mm"
   id="svg13214"
   sodipodi:version="0.32"
   inkscape:version="0.46"
   sodipodi:docbase="/home/alberto"
   sodipodi:docname="logotipo_gulic-2.svg"
   inkscape:output_extension="org.inkscape.output.svg.inkscape">
  <defs
     id="defs13216">
    <inkscape:perspective
       sodipodi:type="inkscape:persp3d"
       inkscape:vp_x="0 : 186.02362 : 1"
       inkscape:vp_y="0 : 1000 : 0"
       inkscape:vp_z="1052.3622 : 186.02362 : 1"
       inkscape:persp3d-origin="526.18109 : 124.01575 : 1"
       id="perspective51" />
    <linearGradient
       id="linearGradient12436">
      <stop
         style="stop-color:#eee68b;stop-opacity:1.0000000;"
         offset="0.0000000"
         id="stop12438" />
      <stop
         style="stop-color:#f6ee4a;stop-opacity:1.0000000;"
         offset="1.0000000"
         id="stop12440" />
    </linearGradient>
    <linearGradient
       inkscape:collect="always"
       xlink:href="#linearGradient12436"
       id="linearGradient13102"
       gradientUnits="userSpaceOnUse"
       gradientTransform="matrix(1.060490,0.000000,0.000000,1.000000,-7.205660e-2,-0.127739)"
       x1="0.73293530"
       y1="0.47202159"
       x2="0.85147620"
       y2="0.47202159" />
    <linearGradient
       id="linearGradient12406">
      <stop
         style="stop-color:#6a9dbd;stop-opacity:1.0000000;"
         offset="0.0000000"
         id="stop12408" />
      <stop
         style="stop-color:#cddacd;stop-opacity:1.0000000;"
         offset="1.0000000"
         id="stop12410" />
    </linearGradient>
    <linearGradient
       inkscape:collect="always"
       xlink:href="#linearGradient12406"
       id="linearGradient13149"
       gradientUnits="userSpaceOnUse"
       gradientTransform="translate(-0.146268,6.377616e-4)"
       x1="0.58384248"
       y1="0.48206176"
       x2="0.70071674"
       y2="0.48206176" />
    <linearGradient
       id="linearGradient10141">
      <stop
         style="stop-color:#f6faf6;stop-opacity:1.0000000;"
         offset="0.0000000"
         id="stop12359" />
      <stop
         id="stop12379"
         offset="1.0000000"
         style="stop-color:#d9ecf2;stop-opacity:1.0000000;" />
    </linearGradient>
    <linearGradient
       inkscape:collect="always"
       xlink:href="#linearGradient10141"
       id="linearGradient13147"
       gradientUnits="userSpaceOnUse"
       gradientTransform="translate(-0.143861,-0.157423)"
       x1="0.17133355"
       y1="0.67282481"
       x2="0.29654428"
       y2="0.67282426" />
    <linearGradient
       id="linearGradient12381">
      <stop
         style="stop-color:#d9ecf2;stop-opacity:1.0000000;"
         offset="0.0000000"
         id="stop12387" />
      <stop
         style="stop-color:#73aacd;stop-opacity:1.0000000;"
         offset="1.0000000"
         id="stop12385" />
    </linearGradient>
    <linearGradient
       inkscape:collect="always"
       xlink:href="#linearGradient12381"
       id="linearGradient13145"
       gradientUnits="userSpaceOnUse"
       gradientTransform="translate(-0.146225,6.272378e-3)"
       x1="0.40763053"
       y1="0.50000000"
       x2="0.52478141"
       y2="0.50282091" />
    <linearGradient
       id="linearGradient12428">
      <stop
         style="stop-color:#e6eecd;stop-opacity:1.0000000;"
         offset="0.0000000"
         id="stop12430" />
      <stop
         style="stop-color:#eeeaac;stop-opacity:1.0000000;"
         offset="1.0000000"
         id="stop12432" />
    </linearGradient>
    <linearGradient
       inkscape:collect="always"
       xlink:href="#linearGradient12428"
       id="linearGradient12848"
       gradientUnits="userSpaceOnUse"
       x1="0.64009599"
       y1="0.33527011"
       x2="0.68666943"
       y2="0.33527011" />
    <linearGradient
       inkscape:collect="always"
       xlink:href="#linearGradient10141"
       id="linearGradient1485"
       gradientUnits="userSpaceOnUse"
       gradientTransform="translate(-0.143861,-0.157423)"
       x1="0.17133355"
       y1="0.67282481"
       x2="0.29654428"
       y2="0.67282426" />
    <linearGradient
       inkscape:collect="always"
       xlink:href="#linearGradient12381"
       id="linearGradient1487"
       gradientUnits="userSpaceOnUse"
       gradientTransform="translate(-0.146225,6.272378e-3)"
       x1="0.40763053"
       y1="0.50000000"
       x2="0.52478141"
       y2="0.50282091" />
    <linearGradient
       inkscape:collect="always"
       xlink:href="#linearGradient12406"
       id="linearGradient1489"
       gradientUnits="userSpaceOnUse"
       gradientTransform="matrix(1.000000,0.000000,0.000000,0.946412,-0.146268,2.832067e-2)"
       x1="0.58384248"
       y1="0.48206176"
       x2="0.70071674"
       y2="0.48206176" />
    <linearGradient
       inkscape:collect="always"
       xlink:href="#linearGradient12428"
       id="linearGradient1491"
       gradientUnits="userSpaceOnUse"
       x1="0.64009599"
       y1="0.33527011"
       x2="0.68666943"
       y2="0.33527011" />
    <linearGradient
       inkscape:collect="always"
       xlink:href="#linearGradient12436"
       id="linearGradient1493"
       gradientUnits="userSpaceOnUse"
       gradientTransform="matrix(1.060490,0.000000,0.000000,1.000000,-7.205660e-2,-0.127739)"
       x1="0.73293530"
       y1="0.47202159"
       x2="0.85147620"
       y2="0.47202159" />
  </defs>
  <sodipodi:namedview
     id="base"
     pagecolor="#ffffff"
     bordercolor="#666666"
     borderopacity="1.0"
     inkscape:pageopacity="0.0"
     inkscape:pageshadow="2"
     inkscape:zoom="1"
     inkscape:cx="655.5807"
     inkscape:cy="198.9881"
     inkscape:document-units="mm"
     inkscape:current-layer="layer1"
     borderlayer="top"
     inkscape:window-width="1440"
     inkscape:window-height="828"
     inkscape:window-x="0"
     inkscape:window-y="0"
     showguides="true"
     inkscape:guide-bbox="true"
     showgrid="false" />
  <metadata
     id="metadata13219">
    <rdf:RDF>
      <cc:Work
         rdf:about="">
        <dc:format>image/svg+xml</dc:format>
        <dc:type
           rdf:resource="http://purl.org/dc/dcmitype/StillImage" />
        <dc:title>Logotipo de Gulic</dc:title>
        <dc:date>14/09/2005</dc:date>
        <dc:creator>
          <cc:Agent>
            <dc:title>Alberto Ruiz</dc:title>
          </cc:Agent>
        </dc:creator>
        <dc:rights>
          <cc:Agent>
            <dc:title>Copyleft</dc:title>
          </cc:Agent>
        </dc:rights>
        <dc:publisher>
          <cc:Agent>
            <dc:title>Luis Cabrera Sauco</dc:title>
          </cc:Agent>
        </dc:publisher>
        <dc:identifier>Inkscape</dc:identifier>
        <dc:source>Bitstream Vera Sans Bold</dc:source>
        <dc:language>Español/Spanish</dc:language>
        <dc:subject>
          <rdf:Bag>
            <rdf:li>Gulic</rdf:li>
          </rdf:Bag>
        </dc:subject>
        <dc:coverage>Mundial</dc:coverage>
        <dc:description>Logotipo del Grupo de Usuarios de Linux de Canarias (Spain) http://www.gulic.org/</dc:description>
        <cc:license
           rdf:resource="http://creativecommons.org/licenses/by/2.0/" />
      </cc:Work>
      <cc:License
         rdf:about="http://artlibre.org/licence.php/lalgb.html">
        <cc:permits
           rdf:resource="http://web.resource.org/cc/Reproduction" />
        <cc:permits
           rdf:resource="http://web.resource.org/cc/Distribution" />
        <cc:permits
           rdf:resource="http://web.resource.org/cc/DerivativeWorks" />
        <cc:requires
           rdf:resource="http://web.resource.org/cc/ShareAlike" />
        <cc:requires
           rdf:resource="http://web.resource.org/cc/Notice" />
        <cc:requires
           rdf:resource="http://web.resource.org/cc/Attribution" />
      </cc:License>
    </rdf:RDF>
  </metadata>
  <g
     inkscape:label="Layer 1"
     inkscape:groupmode="layer"
     id="layer1"
     transform="translate(-5.932971,-15.14149)">
    <g
       transform="matrix(1020.687,0.000000,0.000000,1025.083,124.3896,-288.8956)"
       id="g12367">
      <path
         id="path8324"
         style="font-style:normal;font-variant:normal;font-weight:normal;font-stretch:normal;fill:#000000;fill-opacity:1.0000000;stroke:#000000;stroke-width:0.0000000;stroke-linecap:butt;stroke-linejoin:miter;stroke-miterlimit:10.433000;stroke-dashoffset:0.0000000;stroke-opacity:1.0000000;letter-spacing:normal;text-anchor:start"
         d="M 0.15748704,0.50617926 L 0.14542115,0.50617926 C 0.15243499,0.50851779 0.15786898,0.51172610 0.16174048,0.51580073 C 0.16535157,0.51959931 0.16717448,0.52368783 0.16717448,0.52806280 C 0.16717448,0.53260618 0.16526477,0.53681795 0.16142799,0.54068425 C 0.15740023,0.54478665 0.15161902,0.54802795 0.14408435,0.55040120 C 0.13578579,0.55298452 0.12611571,0.55427444 0.11509148,0.55427444 L 0.077765327,0.55427444 C 0.064067497,0.55427444 0.052209937,0.55244285 0.042170067,0.54878142 C 0.033116307,0.54549151 0.026064267,0.54085960 0.021012217,0.53489262 C 0.016366417,0.52936488 0.014046987,0.52332846 0.014046987,0.51678510 C 0.014046987,0.51020701 0.016434117,0.50401435 0.021215337,0.49821751 C 0.026267387,0.49214810 0.033388877,0.48736688 0.042571107,0.48387385 C 0.052678677,0.48004228 0.064397357,0.47812909 0.077765327,0.47812909 L 0.15748704,0.47812909 L 0.15748704,0.50617926 z " />
      <path
         id="path8326"
         style="font-style:normal;font-variant:normal;font-weight:normal;font-stretch:normal;fill:url(#linearGradient1485);fill-opacity:1.0000000;stroke:#000000;stroke-width:0.0000000;stroke-linecap:round;stroke-linejoin:round;stroke-miterlimit:10.433000;stroke-dashoffset:0.0000000;stroke-opacity:1.0000000;marker-start:none;marker-mid:none;letter-spacing:normal;text-anchor:start"
         d="M 0.14601615,0.49545341 L 0.14601615,0.48087190 L 0.078481861,0.48087190 C 0.067804841,0.48087190 0.058412541,0.48260106 0.050304951,0.48606111 C 0.042947361,0.48921386 0.037251221,0.49356106 0.033216521,0.49908880 C 0.029384951,0.50431620 0.027471771,0.50994463 0.027471771,0.51598800 C 0.027471771,0.52188726 0.029317241,0.52735424 0.033013401,0.53237157 C 0.036945671,0.53766841 0.042587991,0.54184026 0.049940371,0.54489059 C 0.057978521,0.54825515 0.067474981,0.54993049 0.078464501,0.54993049 L 0.095634531,0.54993049 L 0.11577329,0.54993049 C 0.12733571,0.54993049 0.13655440,0.54774647 0.14342936,0.54337845 C 0.14959251,0.53941146 0.15268277,0.53458336 0.15268277,0.52889243 C 0.15268277,0.52319628 0.14960987,0.51836819 0.14348144,0.51440815 C 0.13667593,0.51003317 0.12743988,0.50784916 0.11580801,0.50784916 L 0.095686611,0.50784916 L 0.095686611,0.52264073 L 0.11084276,0.52264073 C 0.11410663,0.52264073 0.11665870,0.52327094 0.11851632,0.52453308 C 0.12021770,0.52565113 0.12106839,0.52706258 0.12106839,0.52876396 C 0.12106839,0.53050006 0.12020034,0.53197921 0.11848160,0.53320664 C 0.11653717,0.53456253 0.11400246,0.53524829 0.11084276,0.53524829 L 0.095686611,0.53524829 L 0.083568631,0.53493579 C 0.076294371,0.53493579 0.070461081,0.53281254 0.066086101,0.52858167 C 0.062110431,0.52475704 0.060131281,0.52013207 0.060131281,0.51471370 C 0.060131281,0.50938908 0.062040991,0.50497418 0.065877771,0.50144816 C 0.070183301,0.49745339 0.076086041,0.49545341 0.083568631,0.49545341 L 0.14601615,0.49545341 z " />
    </g>
    <g
       transform="matrix(1020.611,0.000000,0.000000,1029.591,54.46744,-283.2676)"
       id="g12391">
      <path
         id="path8328"
         style="font-style:normal;font-variant:normal;font-weight:normal;font-stretch:normal;fill:#000000;fill-opacity:1.0000000;stroke:#000000;stroke-width:0.0000000;stroke-linecap:butt;stroke-linejoin:miter;stroke-miterlimit:10.433000;stroke-dashoffset:0.0000000;stroke-opacity:1.0000000;letter-spacing:normal;text-anchor:start"
         d="M 0.39038247,0.51840917 L 0.39038247,0.51895777 L 0.39034774,0.51950117 L 0.39029566,0.52004110 L 0.39022622,0.52057755 L 0.39012205,0.52110880 L 0.39001789,0.52163657 L 0.38987900,0.52216088 L 0.38972275,0.52267997 L 0.38954914,0.52319559 L 0.38934081,0.52370601 L 0.38913247,0.52421468 L 0.38888942,0.52471815 L 0.38862901,0.52521641 L 0.38835123,0.52571120 L 0.38803873,0.52620252 L 0.38772623,0.52669036 L 0.38737901,0.52717300 L 0.38701443,0.52765216 L 0.38661513,0.52812785 L 0.38621583,0.52859834 L 0.38578180,0.52906535 L 0.38534778,0.52952715 L 0.38487903,0.52998722 L 0.38437556,0.53044207 L 0.38387209,0.53089172 L 0.38333390,0.53133790 L 0.38277835,0.53178061 L 0.38220544,0.53221984 L 0.38161516,0.53265387 L 0.38100753,0.53308442 L 0.38036517,0.53351150 L 0.37970545,0.53393337 C 0.37319508,0.53800279 0.36432361,0.54115555 0.35305632,0.54339338 C 0.34237930,0.54550274 0.33088632,0.54655308 0.31859473,0.54655308 C 0.30638995,0.54655308 0.29520946,0.54553573 0.28503592,0.54350275 C 0.27415057,0.54135867 0.26557424,0.53823890 0.25930692,0.53413649 C 0.25244932,0.52968861 0.24902920,0.52444558 0.24902920,0.51840917 L 0.24902920,0.47072197 L 0.30329969,0.47072197 L 0.30329969,0.51617133 C 0.30329969,0.51811229 0.30510523,0.51965048 0.30869896,0.52080325 C 0.31206700,0.52186227 0.31600794,0.52238310 0.32053916,0.52238310 C 0.32501830,0.52238310 0.32878564,0.52187616 0.33184117,0.52085880 C 0.33524393,0.51973902 0.33694531,0.51818000 0.33694531,0.51617133 L 0.33694531,0.47072197 L 0.39038247,0.47072197 L 0.39038247,0.51840917 z " />
      <path
         id="path8330"
         style="font-style:normal;font-variant:normal;font-weight:normal;font-stretch:normal;fill:url(#linearGradient1487);fill-opacity:1.0000000;stroke:#000000;stroke-width:0.0000000;stroke-linecap:butt;stroke-linejoin:miter;stroke-miterlimit:10.433000;stroke-dashoffset:0.0000000;stroke-opacity:1.0000000;letter-spacing:normal;text-anchor:start"
         d="M 0.37855658,0.51817655 L 0.37855658,0.47451016 L 0.34949426,0.47451016 L 0.34949426,0.51571476 C 0.34949426,0.51941091 0.34656025,0.52234666 0.34069223,0.52452373 C 0.33539713,0.52645774 0.32888675,0.52742649 0.32114375,0.52742649 C 0.31317505,0.52742649 0.30638690,0.52644385 0.30079666,0.52446991 C 0.29458142,0.52226680 0.29147380,0.51934320 0.29147380,0.51571476 L 0.29147380,0.47451016 L 0.26157816,0.47451016 L 0.26157816,0.51817655 C 0.26157816,0.52625288 0.26755034,0.53264867 0.27947735,0.53736219 C 0.28487662,0.53947155 0.29084880,0.54104445 0.29739390,0.54209480 C 0.30393900,0.54314687 0.31116117,0.54367638 0.31909515,0.54367638 C 0.33503255,0.54367638 0.34864357,0.54153924 0.35989350,0.53725976 C 0.37234134,0.53251326 0.37855658,0.52615219 0.37855658,0.51817655 z " />
    </g>
    <g
       transform="matrix(1020.730,0.000000,0.000000,1027.318,32.71213,-258.8371)"
       id="g12416">
      <path
         id="path8332"
         style="font-style:normal;font-variant:normal;font-weight:normal;font-stretch:normal;fill:#000000;fill-opacity:1.0000000;stroke:#000000;stroke-width:0.0000000;stroke-linecap:butt;stroke-linejoin:miter;stroke-miterlimit:10.433000;stroke-dashoffset:0.0000000;stroke-opacity:1.0000000;letter-spacing:normal;text-anchor:start"
         d="M 0.56631781,0.52415396 L 0.49906130,0.52415396 C 0.47795032,0.52415396 0.46131848,0.52186057 0.44914842,0.51728421 C 0.43958251,0.51368875 0.43288116,0.50870441 0.42904438,0.50232945 C 0.42661384,0.49826176 0.42538121,0.49341284 0.42538121,0.48778267 L 0.42538121,0.48589900 L 0.42538121,0.48365943 L 0.42538121,0.44800861 L 0.48048502,0.44800861 L 0.48048502,0.48422366 C 0.48048502,0.48734343 0.48190863,0.48996668 0.48475583,0.49210382 C 0.48808914,0.49451005 0.49284606,0.49571143 0.49900921,0.49571143 L 0.56631781,0.49571143 L 0.56631781,0.52415396 z " />
      <path
         id="path8334"
         style="font-style:normal;font-variant:normal;font-weight:normal;font-stretch:normal;fill:url(#linearGradient1489);fill-opacity:1.0000000;stroke:#000000;stroke-width:0.0000000;stroke-linecap:butt;stroke-linejoin:miter;stroke-miterlimit:10.433000;stroke-dashoffset:0.0000000;stroke-opacity:1.0000000;letter-spacing:normal;text-anchor:start"
         d="M 0.55444837,0.51722882 L 0.55444837,0.50303765 L 0.49936191,0.50303765 C 0.48939670,0.50303765 0.48160161,0.50086880 0.47599401,0.49653603 C 0.47108084,0.49274877 0.46861558,0.48808246 0.46861558,0.48253054 L 0.46861558,0.45187092 L 0.43788661,0.45187092 L 0.43788661,0.48255026 L 0.43787003,0.48369560 L 0.43790001,0.48586673 C 0.43790001,0.49017321 0.43865050,0.49401393 0.44078590,0.49767797 C 0.44410185,0.50326275 0.44977890,0.50769739 0.45778232,0.51097037 C 0.46812947,0.51514212 0.48200091,0.51722882 0.49937928,0.51722882 L 0.55444837,0.51722882 z "
         sodipodi:nodetypes="cccccccccccccc" />
    </g>
    <g
       id="g1479">
      <path
         inkscape:label="Base del Conjunto"
         d="M 1028.9057,284.50738 L 703.76520,284.50738 C 694.49824,284.23097 688.98769,279.38488 690.97220,269.39854 C 694.55141,251.21548 697.54588,246.22586 697.56360,225.14931 C 697.58132,179.25401 682.39629,177.73019 682.50261,155.15994 C 682.59120,136.23624 694.14387,123.77990 693.57686,104.66128 C 692.77953,78.100770 664.50027,72.749680 642.03280,62.614510 C 663.84468,78.348830 668.92998,89.635730 668.32754,101.56049 C 665.74059,153.21087 629.34613,176.07703 629.34613,229.50283 C 629.34613,262.99496 638.80798,259.60358 635.74262,276.29825 C 634.99842,280.40371 633.72267,282.79752 626.24533,284.06442 L 35.322424,284.06442 L 35.322424,294.69572 L 1028.9057,294.95263 L 1028.9057,284.50738 z "
         style="font-style:normal;font-variant:normal;font-weight:normal;font-stretch:normal;fill:#000000;fill-opacity:1.0000000;stroke:none;stroke-width:0.00013888889;stroke-linecap:round;stroke-linejoin:round;stroke-miterlimit:10.433000;stroke-dashoffset:0.0000000;stroke-opacity:1.0000000;letter-spacing:normal;text-anchor:start"
         id="path6988" />
      <path
         id="path8318"
         style="font-style:normal;font-variant:normal;font-weight:normal;font-stretch:normal;fill:#ebc300;fill-opacity:1.0000000;fill-rule:nonzero;stroke:#ebba00;stroke-width:0.0000000;stroke-linecap:butt;stroke-linejoin:miter;stroke-miterlimit:10.433000;stroke-dashoffset:0.0000000;stroke-opacity:1.0000000;letter-spacing:normal;text-anchor:start"
         d="M 678.63449,81.853450 L 679.53814,82.579920 L 680.45955,83.306390 L 681.39861,84.050590 L 682.33767,84.847930 L 683.27684,85.663000 L 684.21591,86.531220 L 685.11955,87.452600 L 685.56250,87.931000 L 686.00555,88.427130 L 686.44849,88.940980 L 686.87368,89.472540 L 687.29897,90.021820 L 687.70650,90.588820 L 688.09636,91.173550 L 688.48613,91.775990 L 688.85826,92.396150 L 689.21262,93.034020 L 689.56697,93.707340 L 689.90367,94.398380 L 690.22261,95.107130 L 690.52379,95.851320 L 690.78956,96.613230 L 691.05533,97.410580 L 691.30344,98.225650 L 691.53379,99.076140 C 696.45967,118.77949 679.27237,137.59688 679.75072,157.65459 C 679.94567,165.96472 682.01873,166.76384 688.52156,181.40136 C 681.87697,170.32710 675.46284,167.46196 676.57907,153.84504 C 677.57132,141.63678 687.33438,123.88250 689.31896,107.31540 C 690.20485,99.891210 687.28131,90.943200 678.63449,81.853450 z " />
      <path
         id="path8320"
         style="font-style:normal;font-variant:normal;font-weight:normal;font-stretch:normal;fill:none;fill-opacity:1.0000000;stroke:#ebba00;stroke-width:0.88594133;stroke-linecap:butt;stroke-linejoin:miter;stroke-miterlimit:10.433000;stroke-dashoffset:0.0000000;stroke-opacity:1.0000000;letter-spacing:normal;text-anchor:start"
         d="M 678.45240,81.695760 L 679.35604,82.422230 L 680.27736,83.148700 L 681.21653,83.892900 L 682.15559,84.690240 L 683.09465,85.505310 L 684.03382,86.373540 L 684.93747,87.294910 L 685.38040,87.773320 L 685.82335,88.269450 L 686.26641,88.783290 L 686.69159,89.314860 L 687.11688,89.864140 L 687.52441,90.431140 L 687.91418,91.015870 L 688.30406,91.618300 L 688.67617,92.238470 L 689.03053,92.876340 L 689.38488,93.549660 L 689.72158,94.240690 L 690.04052,94.949450 L 690.34171,95.693630 L 690.60747,96.455540 L 690.87324,97.252890 L 691.12135,98.067960 L 691.35170,98.918460 C 696.27748,118.62180 679.09028,137.43920 679.56865,157.49691 C 679.76358,165.80704 681.83665,166.60616 688.33947,181.24368 C 681.69488,170.16942 675.28065,167.30428 676.39700,153.68735 C 677.38923,141.47909 687.15230,123.72482 689.13677,107.15772 C 690.02277,99.733530 687.09912,90.785520 678.45240,81.695760 z " />
      <path
         sodipodi:type="arc"
         style="fill:url(#linearGradient1491);fill-opacity:1.0000000;fill-rule:nonzero;stroke:none;stroke-width:0.10000000;stroke-linecap:round;stroke-linejoin:round;stroke-miterlimit:10.433000;stroke-opacity:1.0000000;display:inline"
         id="path11605"
         sodipodi:cx="0.66338271"
         sodipodi:cy="0.33527011"
         sodipodi:rx="0.023286717"
         sodipodi:ry="0.048113052"
         d="M 0.68666943 0.33527011 A 0.023286717 0.048113052 0 1 1  0.64009599,0.33527011 A 0.023286717 0.048113052 0 1 1  0.68666943 0.33527011 z"
         transform="matrix(1020.611,0.000000,0.000000,1020.611,-20.93486,-114.6172)" />
    </g>
    <g
       id="g12457"
       transform="matrix(1020.611,0.000000,0.000000,1029.554,-7.843815,-114.2926)">
      <path
         d="M 0.84111402,0.38286877 L 0.76139231,0.38286877 C 0.74769448,0.38286877 0.73583692,0.38103718 0.72580226,0.37737575 C 0.71675718,0.37408584 0.70970862,0.36945393 0.70465656,0.36348695 C 0.70000382,0.35795921 0.69767744,0.35192279 0.69767744,0.34537943 C 0.69767744,0.33880134 0.70007326,0.33260868 0.70484754,0.32681184 C 0.70989959,0.32074243 0.71701760,0.31596121 0.72620157,0.31246818 C 0.73630567,0.30863661 0.74804170,0.30672342 0.76139231,0.30672342 L 0.84111402,0.30672342 L 0.84111402,0.33484651 L 0.76656589,0.33484651 C 0.76236453,0.33484651 0.75906594,0.33582393 0.75667012,0.33779093 C 0.75450000,0.33958085 0.75340625,0.34177876 0.75340625,0.34438291 C 0.75340625,0.34705476 0.75453472,0.34935336 0.75675693,0.35127869 C 0.75923955,0.35338111 0.76250342,0.35442624 0.76656589,0.35442624 L 0.84111402,0.35442624 L 0.84111402,0.38286877 z "
         style="font-style:normal;font-variant:normal;font-weight:normal;font-stretch:normal;fill:#000000;fill-opacity:1.0000000;stroke:#000000;stroke-width:0.0000000;stroke-linecap:butt;stroke-linejoin:miter;stroke-miterlimit:10.433000;stroke-dashoffset:0.0000000;stroke-opacity:1.0000000;letter-spacing:normal;text-anchor:start"
         id="path8336" />
      <path
         d="M 0.83092690,0.37881229 L 0.83092690,0.36381759 L 0.76475710,0.36381759 C 0.75702441,0.36381759 0.75085665,0.36169434 0.74621703,0.35746347 C 0.74200088,0.35363884 0.73990200,0.34901387 0.73990200,0.34359550 C 0.73990200,0.33827088 0.74194565,0.33385598 0.74599610,0.33032996 C 0.75056208,0.32633519 0.75680347,0.32433521 0.76475710,0.32433521 L 0.83092690,0.32433521 L 0.83092690,0.30975370 L 0.75930739,0.30975370 C 0.74798452,0.30975370 0.73802407,0.31148286 0.72944445,0.31494291 C 0.72163812,0.31809566 0.71559924,0.32244286 0.71130944,0.32797060 C 0.70725897,0.33319800 0.70521534,0.33882643 0.70521534,0.34486980 C 0.70521534,0.35076906 0.70718532,0.35623604 0.71110691,0.36125337 C 0.71526784,0.36655021 0.72125148,0.37072206 0.72905782,0.37377239 C 0.73758219,0.37713695 0.74765312,0.37881229 0.75930739,0.37881229 L 0.83092690,0.37881229 z "
         style="font-style:normal;font-variant:normal;font-weight:normal;font-stretch:normal;fill:url(#linearGradient1493);fill-opacity:1.0000000;stroke:#000000;stroke-width:0.0000000;stroke-linecap:butt;stroke-linejoin:miter;stroke-miterlimit:10.433000;stroke-dashoffset:0.0000000;stroke-opacity:1.0000000;letter-spacing:normal;text-anchor:start"
         id="path8338" />
    </g>
    <text
       xml:space="preserve"
       style="font-size:42.2659874px;font-style:normal;font-variant:normal;font-weight:bold;font-stretch:normal;line-height:125%;writing-mode:lr-tb;text-anchor:start;fill:#000000;fill-opacity:1;stroke:none;stroke-width:1px;stroke-linecap:butt;stroke-linejoin:miter;stroke-opacity:1;font-family:Bitstream Vera Sans"
       x="32.503048"
       y="369.66168"
       id="text12970"
       sodipodi:linespacing="125%"
       transform="scale(1.0899118,0.9175054)"><tspan
         sodipodi:role="line"
         id="tspan12972"
         x="32.503048"
         y="369.66168"
         style="font-style:normal;font-variant:normal;font-weight:bold;font-stretch:normal;font-family:Zero Twos;-inkscape-font-specification:Zero Twos Bold">GRUPO DE USUARIOS DE LINUX DE CANARIAS</tspan></text>
  </g>
</svg>
