<?xml version="1.0" encoding="UTF-8" standalone="no"?>
<!-- Created with Inkscape (http://www.inkscape.org/) -->

<svg
   xmlns:dc="http://purl.org/dc/elements/1.1/"
   xmlns:cc="http://creativecommons.org/ns#"
   xmlns:rdf="http://www.w3.org/1999/02/22-rdf-syntax-ns#"
   xmlns:svg="http://www.w3.org/2000/svg"
   xmlns="http://www.w3.org/2000/svg"
   xmlns:xlink="http://www.w3.org/1999/xlink"
   xmlns:sodipodi="http://sodipodi.sourceforge.net/DTD/sodipodi-0.dtd"
   xmlns:inkscape="http://www.inkscape.org/namespaces/inkscape"
   inkscape:export-ydpi="300.00000"
   inkscape:export-xdpi="300.00000"
   inkscape:export-filename="/home/alberto/logotipo_gulic.svg-300dpi.png"
   width="296.99999mm"
   height="105.00000mm"
   id="svg13214"
   sodipodi:version="0.32"
   inkscape:version="0.47 r22583"
   sodipodi:docname="logotipo_gulic-tricolor.svg"
   inkscape:output_extension="org.inkscape.output.svg.inkscape"
   version="1.1">
  <title
     id="title4260">Logotipo GULiC (blanco, tricolor)</title>
  <defs
     id="defs13216">
    <inkscape:perspective
       sodipodi:type="inkscape:persp3d"
       inkscape:vp_x="0 : 186.02362 : 1"
       inkscape:vp_y="0 : 1000 : 0"
       inkscape:vp_z="1052.3622 : 186.02362 : 1"
       inkscape:persp3d-origin="526.18109 : 124.01575 : 1"
       id="perspective51" />
    <linearGradient
       id="linearGradient12436">
      <stop
         style="stop-color:#eee68b;stop-opacity:1.0000000;"
         offset="0.0000000"
         id="stop12438" />
      <stop
         style="stop-color:#f6ee4a;stop-opacity:1.0000000;"
         offset="1.0000000"
         id="stop12440" />
    </linearGradient>
    <linearGradient
       inkscape:collect="always"
       xlink:href="#linearGradient12436"
       id="linearGradient13102"
       gradientUnits="userSpaceOnUse"
       gradientTransform="matrix(1.060490,0.000000,0.000000,1.000000,-7.205660e-2,-0.127739)"
       x1="0.73293530"
       y1="0.47202159"
       x2="0.85147620"
       y2="0.47202159" />
    <linearGradient
       id="linearGradient12406">
      <stop
         style="stop-color:#6a9dbd;stop-opacity:1.0000000;"
         offset="0.0000000"
         id="stop12408" />
      <stop
         style="stop-color:#cddacd;stop-opacity:1.0000000;"
         offset="1.0000000"
         id="stop12410" />
    </linearGradient>
    <linearGradient
       inkscape:collect="always"
       xlink:href="#linearGradient12406"
       id="linearGradient13149"
       gradientUnits="userSpaceOnUse"
       gradientTransform="translate(-0.146268,6.377616e-4)"
       x1="0.58384248"
       y1="0.48206176"
       x2="0.70071674"
       y2="0.48206176" />
    <linearGradient
       id="linearGradient10141">
      <stop
         style="stop-color:#f6faf6;stop-opacity:1.0000000;"
         offset="0.0000000"
         id="stop12359" />
      <stop
         id="stop12379"
         offset="1.0000000"
         style="stop-color:#d9ecf2;stop-opacity:1.0000000;" />
    </linearGradient>
    <linearGradient
       inkscape:collect="always"
       xlink:href="#linearGradient10141"
       id="linearGradient13147"
       gradientUnits="userSpaceOnUse"
       gradientTransform="translate(-0.143861,-0.157423)"
       x1="0.17133355"
       y1="0.67282481"
       x2="0.29654428"
       y2="0.67282426" />
    <linearGradient
       id="linearGradient12381">
      <stop
         style="stop-color:#d9ecf2;stop-opacity:1.0000000;"
         offset="0.0000000"
         id="stop12387" />
      <stop
         style="stop-color:#73aacd;stop-opacity:1.0000000;"
         offset="1.0000000"
         id="stop12385" />
    </linearGradient>
    <linearGradient
       inkscape:collect="always"
       xlink:href="#linearGradient12381"
       id="linearGradient13145"
       gradientUnits="userSpaceOnUse"
       gradientTransform="translate(-0.146225,6.272378e-3)"
       x1="0.40763053"
       y1="0.50000000"
       x2="0.52478141"
       y2="0.50282091" />
    <linearGradient
       id="linearGradient12428">
      <stop
         style="stop-color:#e6eecd;stop-opacity:1.0000000;"
         offset="0.0000000"
         id="stop12430" />
      <stop
         style="stop-color:#eeeaac;stop-opacity:1.0000000;"
         offset="1.0000000"
         id="stop12432" />
    </linearGradient>
    <linearGradient
       inkscape:collect="always"
       xlink:href="#linearGradient12428"
       id="linearGradient12848"
       gradientUnits="userSpaceOnUse"
       x1="0.64009599"
       y1="0.33527011"
       x2="0.68666943"
       y2="0.33527011" />
    <linearGradient
       inkscape:collect="always"
       xlink:href="#linearGradient10141"
       id="linearGradient1485"
       gradientUnits="userSpaceOnUse"
       gradientTransform="translate(-0.143861,-0.157423)"
       x1="0.17133355"
       y1="0.67282481"
       x2="0.29654428"
       y2="0.67282426" />
    <inkscape:perspective
       id="perspective6184"
       inkscape:persp3d-origin="0.5 : 0.33333333 : 1"
       inkscape:vp_z="1 : 0.5 : 1"
       inkscape:vp_y="0 : 1000 : 0"
       inkscape:vp_x="0 : 0.5 : 1"
       sodipodi:type="inkscape:persp3d" />
    <inkscape:perspective
       id="perspective31038"
       inkscape:persp3d-origin="0.5 : 0.33333333 : 1"
       inkscape:vp_z="1 : 0.5 : 1"
       inkscape:vp_y="0 : 1000 : 0"
       inkscape:vp_x="0 : 0.5 : 1"
       sodipodi:type="inkscape:persp3d" />
    <inkscape:perspective
       id="perspective31841"
       inkscape:persp3d-origin="0.5 : 0.33333333 : 1"
       inkscape:vp_z="1 : 0.5 : 1"
       inkscape:vp_y="0 : 1000 : 0"
       inkscape:vp_x="0 : 0.5 : 1"
       sodipodi:type="inkscape:persp3d" />
    <linearGradient
       inkscape:collect="always"
       xlink:href="#linearGradient12428-3"
       id="linearGradient1491-1"
       gradientUnits="userSpaceOnUse"
       x1="0.64009601"
       y1="0.33527011"
       x2="0.68666941"
       y2="0.33527011" />
    <linearGradient
       id="linearGradient12428-3">
      <stop
         style="stop-color:#e6eecd;stop-opacity:1.0000000;"
         offset="0.0000000"
         id="stop12430-4" />
      <stop
         style="stop-color:#eeeaac;stop-opacity:1.0000000;"
         offset="1.0000000"
         id="stop12432-0" />
    </linearGradient>
  </defs>
  <sodipodi:namedview
     id="base"
     pagecolor="#000000"
     bordercolor="#666666"
     borderopacity="1.0"
     inkscape:pageopacity="0"
     inkscape:pageshadow="2"
     inkscape:zoom="1.2809278"
     inkscape:cx="526.18108"
     inkscape:cy="186.02362"
     inkscape:document-units="mm"
     inkscape:current-layer="g1479"
     borderlayer="top"
     inkscape:window-width="1432"
     inkscape:window-height="828"
     inkscape:window-x="0"
     inkscape:window-y="0"
     showguides="true"
     inkscape:guide-bbox="true"
     showgrid="false"
     showborder="false"
     inkscape:window-maximized="0" />
  <metadata
     id="metadata13219">
    <rdf:RDF>
      <cc:Work
         rdf:about="">
        <dc:format>image/svg+xml</dc:format>
        <dc:type
           rdf:resource="http://purl.org/dc/dcmitype/StillImage" />
        <dc:title>Logotipo GULiC (blanco, tricolor)</dc:title>
        <dc:date>14/09/2005</dc:date>
        <dc:creator>
          <cc:Agent>
            <dc:title>Alberto Ruiz</dc:title>
          </cc:Agent>
        </dc:creator>
        <dc:rights>
          <cc:Agent>
            <dc:title>Grupo de Usuarios de Linux de Canarias (GULiC) http://www.gulic.org</dc:title>
          </cc:Agent>
        </dc:rights>
        <dc:publisher>
          <cc:Agent>
            <dc:title>Enrique Hernández Bello</dc:title>
          </cc:Agent>
        </dc:publisher>
        <dc:identifier></dc:identifier>
        <dc:source></dc:source>
        <dc:language>Español/Spanish</dc:language>
        <dc:subject>
          <rdf:Bag>
            <rdf:li>GULiC logo logotipo</rdf:li>
          </rdf:Bag>
        </dc:subject>
        <dc:coverage>Mundial</dc:coverage>
        <dc:description>Logotipo de bordes negros y colores uniformes especial para fondos claros y lugares donde no puedan haber degradados. (p.ej. camisas)</dc:description>
        <cc:license
           rdf:resource="http://creativecommons.org/licenses/by/3.0/" />
      </cc:Work>
      <cc:License
         rdf:about="http://creativecommons.org/licenses/by/3.0/">
        <cc:permits
           rdf:resource="http://creativecommons.org/ns#Reproduction" />
        <cc:permits
           rdf:resource="http://creativecommons.org/ns#Distribution" />
        <cc:requires
           rdf:resource="http://creativecommons.org/ns#Notice" />
        <cc:requires
           rdf:resource="http://creativecommons.org/ns#Attribution" />
        <cc:permits
           rdf:resource="http://creativecommons.org/ns#DerivativeWorks" />
      </cc:License>
    </rdf:RDF>
  </metadata>
  <g
     inkscape:label="Layer 1"
     inkscape:groupmode="layer"
     id="layer1"
     transform="translate(-5.932971,-15.14149)">
    <g
       id="g33694">
      <path
         sodipodi:nodetypes="cccccccccccccccccccccccccccccccccccccccccccccccscccccccccccccccccccccccccccccccccccccccccccccccccccccccccccccccccscccccccsccccccccccscccccccccccccccsccccccccccccccccccccccccccccccccccccccccccccccccccccccccccccccccccsccccccccccscccccccccccccccccccccccccccccccccccccccccccccccccccccccccccscccccccccccccccccccccccccccccccccccccsccsccccccccccccccccccccccccccccccccccccccccccccccccccccccccccccccccccccccccccccccccccccccccccccccccccccccsccccccccccscccc"
         id="text12970"
         d="m 69.736018,331.74447 -21.29477,0 c -2.839309,0 -4.549003,-1.05561 -5.12907,-3.16682 -0.122117,-0.48721 -0.183186,-1.01501 -0.183176,-1.58343 l 0,-14.33192 c -1e-5,-1.24505 0.503739,-2.34126 1.511238,-3.28863 1.007487,-0.97438 2.27449,-1.46158 3.801008,-1.46161 l 20.424658,0 0,4.75024 -20.424658,0 0,14.33192 15.982524,0 0,-4.79082 -10.62449,0 0,-4.75026 15.936736,0 0,14.29133 m 31.024092,0 -7.968354,0 -12.502089,-9.54107 -0.824313,0 0,9.54107 -5.312244,0 0,-23.83241 20.378859,0 c 1.495959,3e-5 2.747689,0.4737 3.755211,1.42102 1.037995,0.92029 1.557015,2.03004 1.557035,3.32922 l 0,4.79084 c -2e-5,3.16684 -1.770777,4.75027 -5.312246,4.75026 l -6.548708,0 12.776849,9.54107 m -6.228141,-14.29133 0,-4.79084 -15.066615,0 0,4.79084 15.066615,0 m 31.522851,14.29133 -15.93674,0 c -1.58757,0 -2.88511,-0.4466 -3.8926,-1.33982 -0.97696,-0.92026 -1.46544,-2.05707 -1.46544,-3.41043 l 0,-19.08216 5.35804,0 0,19.08216 15.93674,0 0,-19.08216 5.31223,0 0,19.08216 c -3e-5,1.32628 -0.47324,2.44957 -1.41964,3.36984 -0.94646,0.92027 -2.244,1.38041 -3.89259,1.38041 m 14.94569,-9.54107 0,9.54107 -5.31224,0 0,-23.83241 20.83682,0 c 1.46542,3e-5 2.71716,0.4737 3.7552,1.42102 1.038,0.92029 1.55702,2.03004 1.55704,3.32922 l 0,4.79084 c -2e-5,3.16684 -1.77077,4.75027 -5.31224,4.75026 l -15.52458,0 m 15.52458,-4.75026 0,-4.79084 -15.52458,0 0,4.79084 15.52458,0 m 29.93504,14.29133 -15.98254,0 c -2.8393,0 -4.54899,-1.05561 -5.12905,-3.16682 -0.12214,-0.48721 -0.18318,-1.01501 -0.18318,-1.58343 l 0,-14.33192 c 0,-1.24505 0.50373,-2.34126 1.51124,-3.28863 1.00749,-0.97438 2.27449,-1.46158 3.80099,-1.46161 l 15.98254,0 c 1.49594,3e-5 2.74768,0.4737 3.75519,1.42102 1.03801,0.92029 1.55702,2.03004 1.55705,3.32922 l 0,14.33192 c -3e-5,3.16684 -1.77077,4.75025 -5.31224,4.75025 m 0,-4.75025 0,-14.33192 -15.98254,0 0,14.33192 15.98254,0 m 43.47394,4.75025 -21.29475,0 0,-23.83241 c 7.92405,-4.90199 39.89992,23.58804 21.29475,23.83241 m 0,-4.75025 c -4.12594,-7.35676 -9.88216,-10.68151 -15.98251,-14.33192 l 0,14.33192 15.98251,0 m 31.18083,4.75025 -21.29478,0 0,-23.83241 21.29478,0 0,4.75024 -15.93672,0 0,4.79084 15.93672,0 0,4.75026 -15.93672,0 0,4.79082 15.93672,0 0,4.75025 m 39.53415,0 -15.93674,0 c -1.58757,0 -2.88511,-0.4466 -3.8926,-1.33982 -0.97695,-0.92026 -1.46545,-2.05707 -1.46545,-3.41043 l 0,-19.08216 5.35805,0 0,19.08216 15.93674,0 0,-19.08216 5.31224,0 0,19.08216 c -4e-5,1.32628 -0.47324,2.44957 -1.41966,3.36984 -0.94646,0.92027 -2.24399,1.38041 -3.89258,1.38041 m 29.96653,0 -19.0508,0 0,-4.75025 19.0508,0 0,-4.79082 -14.15073,0 c -1.34333,1e-5 -2.47294,-0.31127 -3.38883,-0.93382 -0.91592,-0.62253 -1.51124,-1.46161 -1.78602,-2.51722 -0.12213,-0.406 -0.18319,-0.83906 -0.18319,-1.29922 l 0,-4.79084 c 0,-1.24505 0.50374,-2.34126 1.51124,-3.28863 1.0075,-0.97438 2.28976,-1.46158 3.8468,-1.46161 l 17.63115,0 0,4.75024 -17.63115,0 0,4.79084 14.15073,0 c 1.52648,2e-5 2.79348,0.46016 3.801,1.38042 1.00746,0.92028 1.51121,2.04356 1.51123,3.36984 l 0,4.79082 c -2e-5,1.35336 -0.45797,2.4631 -1.37386,3.32923 -0.97698,0.94735 -2.28977,1.42102 -3.93837,1.42102 m 31.12356,0 -15.93674,0 c -1.58756,0 -2.88509,-0.4466 -3.8926,-1.33982 -0.97696,-0.92026 -1.46543,-2.05707 -1.46543,-3.41043 l 0,-19.08216 5.35803,0 0,19.08216 15.93674,0 0,-19.08216 5.31224,0 0,19.08216 c -2e-5,1.32628 -0.47324,2.44957 -1.41965,3.36984 -0.94647,0.92027 -2.24399,1.38041 -3.89259,1.38041 m 37.36174,0 -5.31223,0 0,-9.54107 -15.98253,0 0,9.54107 -5.31224,0 0,-19.08217 c -10e-6,-1.32626 0.47321,-2.44953 1.41964,-3.36983 0.97696,-0.92025 2.2745,-1.38038 3.8926,-1.38041 l 15.98253,0 c 1.28224,3e-5 2.48818,0.51429 3.61781,1.54282 1.12959,1.0015 1.6944,2.07063 1.69442,3.20742 l 0,19.08217 m -5.31223,-14.29133 0,-4.79084 -15.98253,0 0,4.79084 15.98253,0 m 37.2873,14.29133 -7.96836,0 -12.50209,-9.54107 -0.82432,0 0,9.54107 -5.31224,0 0,-23.83241 20.37886,0 c 1.49596,3e-5 2.74768,0.4737 3.75521,1.42102 1.03801,0.92029 1.55701,2.03004 1.55703,3.32922 l 0,4.79084 c -2e-5,3.16684 -1.77077,4.75027 -5.31224,4.75026 l -6.54871,0 12.77686,9.54107 m -6.22815,-14.29133 0,-4.79084 -15.06662,0 0,4.79084 15.06662,0 m 15.54033,14.29133 -5.31223,0 0,-23.83241 5.31223,0 0,23.83241 m 25.85209,0 -15.98253,0 c -2.8393,0 -4.54899,-1.05561 -5.12907,-3.16682 -0.12211,-0.48721 -0.18317,-1.01501 -0.18317,-1.58343 l 0,-14.33192 c 0,-1.24505 0.50374,-2.34126 1.51123,-3.28863 1.00749,-0.97438 2.2745,-1.46158 3.80101,-1.46161 l 15.98253,0 c 1.49596,3e-5 2.74769,0.4737 3.7552,1.42102 1.03801,0.92029 1.55701,2.03004 1.55704,3.32922 l 0,14.33192 c -3e-5,3.16684 -1.77077,4.75025 -5.31224,4.75025 m 0,-4.75025 0,-14.33192 -15.98253,0 0,14.33192 15.98253,0 m 28.9519,4.75025 -19.05082,0 0,-4.75025 19.05082,0 0,-4.79082 -14.15074,0 c -1.34332,1e-5 -2.47293,-0.31127 -3.38886,-0.93382 -0.9159,-0.62253 -1.51123,-1.46161 -1.786,-2.51722 -0.12211,-0.406 -0.18319,-0.83906 -0.18317,-1.29922 l 0,-4.79084 c -2e-5,-1.24505 0.50374,-2.34126 1.51123,-3.28863 1.00749,-0.97438 2.28976,-1.46158 3.8468,-1.46161 l 17.63116,0 0,4.75024 -17.63116,0 0,4.79084 14.15074,0 c 1.52646,2e-5 2.79347,0.46016 3.80098,1.38042 1.00747,0.92028 1.51123,2.04356 1.51125,3.36984 l 0,4.79082 c -2e-5,1.35336 -0.45797,2.4631 -1.37387,3.32923 -0.97699,0.94735 -2.28977,1.42102 -3.93836,1.42102 m 43.85962,0 -21.29477,0 0,-23.83241 c 8.03297,-5.33637 38.16062,23.61727 21.29477,23.83241 m 0,-4.75025 c -3.54838,-4.58006 -6.36819,-9.07938 -15.98253,-14.33192 l 0,14.33192 15.98253,0 m 31.18083,4.75025 -21.29478,0 0,-23.83241 21.29478,0 0,4.75024 -15.93674,0 0,4.79084 15.93674,0 0,4.75026 -15.93674,0 0,4.79082 15.93674,0 0,4.75025 m 38.75561,0 -21.29478,0 0,-23.83241 5.35805,0 0,19.08216 15.93673,0 0,4.75025 m 9.39304,0 -5.31224,0 0,-23.83241 5.31224,0 0,23.83241 m 31.8055,0 -3.34305,0 -17.95171,-15.50934 0,15.50934 -5.31225,0 0,-23.83241 3.29724,0 17.99753,15.50934 0,-15.50934 5.31224,0 0,23.83241 m 26.39445,0 -15.93672,0 c -1.58757,0 -2.88509,-0.4466 -3.8926,-1.33982 -0.97696,-0.92026 -1.46545,-2.05707 -1.46544,-3.41043 l 0,-19.08216 5.35804,0 0,19.08216 15.93672,0 0,-19.08216 5.31226,0 0,19.08216 c -3e-5,1.32628 -0.47325,2.44957 -1.41966,3.36984 -0.94646,0.92027 -2.244,1.38041 -3.8926,1.38041 m 41.50696,0 -7.28145,0 -8.6553,-8.76967 -8.65528,8.76967 -7.32723,0 12.77686,-11.8959 -12.77686,-11.93651 7.32723,0 8.65528,8.76968 8.6553,-8.76968 7.28145,0 -12.73108,11.93651 12.73108,11.8959 m 38.13308,0 -21.29478,0 0,-23.83241 c 8.21775,-5.90566 37.45625,23.56481 21.29478,23.83241 m 0,-4.75025 c -5.89924,-8.16754 -10.33419,-11.63813 -15.98254,-14.33192 l 0,14.33192 15.98254,0 m 31.18081,4.75025 -21.29478,0 0,-23.83241 21.29478,0 0,4.75024 -15.93674,0 0,4.79084 15.93674,0 0,4.75026 -15.93674,0 0,4.79082 15.93674,0 0,4.75025 m 43.19776,0 -20.37888,0 c -2.86982,0 -4.57952,-1.05561 -5.12905,-3.16682 -0.12213,-0.48721 -0.18319,-1.01501 -0.18319,-1.58343 l 0,-14.33192 c 0,-1.24505 0.48848,-2.34126 1.46545,-3.28863 1.00748,-0.97438 2.28975,-1.46158 3.84679,-1.46161 l 20.37888,0 0,4.75024 -20.37888,0 0,14.33192 20.37888,0 0,4.75025 m 30.74652,0 -5.31226,0 0,-9.54107 -15.98251,0 0,9.54107 -5.31227,0 0,-19.08217 c 0,-1.32626 0.47322,-2.44953 1.41967,-3.36983 0.97696,-0.92025 2.27447,-1.38038 3.8926,-1.38041 l 15.98251,0 c 1.28224,3e-5 2.48819,0.51429 3.61783,1.54282 1.12958,1.0015 1.69439,2.07063 1.69443,3.20742 l 0,19.08217 m -5.31226,-14.29133 0,-4.79084 -15.98251,0 0,4.79084 15.98251,0 m 36.36639,14.29133 -3.34305,0 -17.95173,-15.50934 0,15.50934 -5.31224,0 0,-23.83241 3.29724,0 17.99752,15.50934 0,-15.50934 5.31226,0 0,23.83241 m 31.01983,0 -5.31224,0 0,-9.54107 -15.98253,0 0,9.54107 -5.31225,0 0,-19.08217 c 0,-1.32626 0.47323,-2.44953 1.41966,-3.36983 0.97696,-0.92025 2.27448,-1.38038 3.89259,-1.38041 l 15.98253,0 c 1.28224,3e-5 2.48818,0.51429 3.61781,1.54282 1.1296,1.0015 1.69441,2.07063 1.69443,3.20742 l 0,19.08217 m -5.31224,-14.29133 0,-4.79084 -15.98253,0 0,4.79084 15.98253,0 m 37.28731,14.29133 -7.96837,0 -12.5021,-9.54107 -0.82431,0 0,9.54107 -5.31224,0 0,-23.83241 20.37886,0 c 1.49596,3e-5 2.7477,0.4737 3.75521,1.42102 1.03799,0.92029 1.55701,2.03004 1.55705,3.32922 l 0,4.79084 c -4e-5,3.16684 -1.77079,4.75027 -5.31226,4.75026 l -6.54871,0 12.77687,9.54107 m -6.22816,-14.29133 0,-4.79084 -15.06662,0 0,4.79084 15.06662,0 m 15.54033,14.29133 -5.31226,0 0,-23.83241 5.31226,0 0,23.83241 m 31.07289,0 -5.3123,0 0,-9.54107 -15.98258,0 0,9.54107 -5.31225,0 0,-19.08217 c 0,-1.32626 0.47322,-2.44953 1.41965,-3.36983 0.97696,-0.92025 2.27449,-1.38038 3.8926,-1.38041 l 15.98258,0 c 1.28224,3e-5 2.48811,0.51429 3.61782,1.54282 1.12963,1.0015 1.69438,2.07063 1.69448,3.20742 l 0,19.08217 m -5.3123,-14.29133 0,-4.79084 -15.98258,0 0,4.79084 15.98258,0 m 29.22231,14.29133 -19.0507,0 0,-4.75025 19.0507,0 0,-4.79082 -14.1506,0 c -1.3434,1e-5 -2.473,-0.31127 -3.3888,-0.93382 -0.916,-0.62253 -1.5113,-1.46161 -1.7862,-2.51722 -0.1221,-0.406 -0.1831,-0.83906 -0.1831,-1.29922 l 0,-4.79084 c 0,-1.24505 0.5037,-2.34126 1.5112,-3.28863 1.0076,-0.97438 2.2898,-1.46158 3.8469,-1.46161 l 17.6311,0 0,4.75024 -17.6311,0 0,4.79084 14.1506,0 c 1.5264,2e-5 2.7935,0.46016 3.801,1.38042 1.0074,0.92028 1.5112,2.04356 1.5112,3.36984 l 0,4.79082 c 0,1.35336 -0.4579,2.4631 -1.3738,3.32923 -0.977,0.94735 -2.2897,1.42102 -3.9384,1.42102"
         style="font-size:42.26598740000000021px;font-style:normal;font-variant:normal;font-weight:bold;font-stretch:normal;line-height:125%;writing-mode:lr-tb;text-anchor:start;fill:#000000;fill-opacity:1;stroke:none;font-family:Bitstream Vera Sans" />
      <g
         id="g33674"
         transform="translate(2.9993862e-6,0)">
        <g
           id="g33610"
           transform="translate(-1.6931074,0)">
          <g
             id="g33734"
             transform="translate(19.763558,0)">
            <g
               id="g12457"
               transform="matrix(1020.611,0,0,1029.554,4.0169289,-116.09248)">
              <path
                 d="m 0.84111402,0.38286877 -0.0797217,0 c -0.0136978,0 -0.0255554,-0.001832 -0.03559,-0.005493 -0.009045,-0.00329 -0.0160936,-0.007922 -0.0211457,-0.0138888 -0.004653,-0.005528 -0.006979,-0.0115642 -0.006979,-0.0181075 0,-0.006578 0.002396,-0.0127707 0.00717,-0.0185676 0.005052,-0.006069 0.0121701,-0.0108506 0.021354,-0.0143437 0.0101041,-0.003832 0.0218401,-0.005745 0.0351907,-0.005745 l 0.0797217,0 0,0.0281231 -0.0745481,0 c -0.004201,0 -0.0075,9.7742e-4 -0.009896,0.002944 -0.00217,0.00179 -0.003264,0.003988 -0.003264,0.006592 0,0.002672 0.001128,0.00497 0.003351,0.006896 0.002483,0.002102 0.005746,0.003148 0.009809,0.003148 l 0.0745481,0 0,0.0284425 z"
                 style="font-style:normal;font-variant:normal;font-weight:normal;font-stretch:normal;letter-spacing:normal;text-anchor:start;fill:#000000;fill-opacity:1;stroke:#ffffff;stroke-width:0.00345664000000000;stroke-linecap:butt;stroke-linejoin:miter;stroke-miterlimit:10.43299960999999954;stroke-opacity:0;stroke-dasharray:none;stroke-dashoffset:0"
                 id="path8336" />
              <path
                 d="m 0.8309269,0.37881229 0,-0.0149947 -0.0661698,0 c -0.007733,0 -0.0139004,-0.002123 -0.0185401,-0.006354 -0.004216,-0.003825 -0.006315,-0.00845 -0.006315,-0.013868 0,-0.005325 0.002044,-0.00974 0.006094,-0.0132655 0.004566,-0.003995 0.0108074,-0.005995 0.018761,-0.005995 l 0.0661698,0 0,-0.0145815 -0.0716195,0 c -0.0113229,0 -0.0212833,0.001729 -0.0298629,0.005189 -0.007806,0.003153 -0.0138452,0.0075 -0.018135,0.0130277 -0.00405,0.005227 -0.006094,0.0108558 -0.006094,0.0168992 0,0.005899 0.00197,0.0113662 0.005892,0.0163836 0.004161,0.005297 0.0101446,0.009469 0.0179509,0.012519 0.008524,0.003365 0.0185953,0.00504 0.0302496,0.00504 l 0.0716195,0 z"
                 style="font-style:normal;font-variant:normal;font-weight:normal;font-stretch:normal;letter-spacing:normal;text-anchor:start;fill:#f6ee4a;fill-opacity:1;stroke:#000000;stroke-width:0;stroke-linecap:butt;stroke-linejoin:miter;stroke-miterlimit:10.43299960999999954;stroke-opacity:1;stroke-dashoffset:0"
                 id="path8338" />
            </g>
            <g
               transform="matrix(1020.687,0,0,1025.083,155.18547,-291.67608)"
               id="g12367">
              <path
                 id="path8324"
                 style="font-style:normal;font-variant:normal;font-weight:normal;font-stretch:normal;letter-spacing:normal;text-anchor:start;fill:#000000;fill-opacity:1;stroke:#ffffff;stroke-width:0.00346404000000000;stroke-linecap:butt;stroke-linejoin:miter;stroke-miterlimit:10.43299960999999954;stroke-opacity:0;stroke-dasharray:none;stroke-dashoffset:0"
                 d="m 0.15748704,0.50617926 -0.0120659,0 c 0.007014,0.002339 0.0124478,0.005547 0.0163193,0.009621 0.003611,0.003799 0.005434,0.007887 0.005434,0.0122621 0,0.004543 -0.00191,0.008755 -0.005746,0.0126214 -0.004028,0.004102 -0.009809,0.007344 -0.0173436,0.009717 -0.008299,0.002583 -0.0179686,0.003873 -0.0289929,0.003873 l -0.03732615,0 c -0.01369783,0 -0.02555539,-0.001832 -0.03559526,-0.005493 -0.0090538,-0.00329 -0.0161058,-0.007922 -0.02115785,-0.0138888 -0.0046458,-0.005528 -0.0069652,-0.0115642 -0.0069652,-0.0181075 0,-0.006578 0.0023871,-0.0127707 0.0071683,-0.0185676 0.0050521,-0.006069 0.01217354,-0.0108506 0.02135577,-0.0143437 0.01010757,-0.003832 0.02182625,-0.005745 0.03519422,-0.005745 l 0.07972171,0 0,0.0280502 z" />
              <path
                 id="path8326"
                 style="font-style:normal;font-variant:normal;font-weight:normal;font-stretch:normal;letter-spacing:normal;text-anchor:start;fill:#ffffff;fill-opacity:1;stroke:#000000;stroke-width:0;stroke-linecap:round;stroke-linejoin:round;stroke-miterlimit:10.43299960999999954;stroke-opacity:1;stroke-dashoffset:0;marker-start:none;marker-mid:none"
                 d="m 0.14601615,0.49545341 0,-0.0145815 -0.06753429,0 c -0.01067702,0 -0.02006932,0.001729 -0.02817691,0.005189 -0.0073576,0.003153 -0.01305373,0.0075 -0.01708843,0.0130277 -0.0038316,0.005227 -0.0057447,0.0108558 -0.0057447,0.0168992 0,0.005899 0.0018455,0.0113662 0.0055416,0.0163836 0.0039323,0.005297 0.0095746,0.009469 0.01692697,0.012519 0.0080382,0.003365 0.01753461,0.00504 0.02852413,0.00504 l 0.01717003,0 0.02013876,0 c 0.0115624,0 0.0207811,-0.002184 0.0276561,-0.006552 0.006163,-0.003967 0.009253,-0.008795 0.009253,-0.014486 0,-0.005696 -0.003073,-0.0105242 -0.009201,-0.0144843 -0.006806,-0.004375 -0.0160416,-0.006559 -0.0276734,-0.006559 l -0.0201214,0 0,0.0147916 0.01515615,0 c 0.003264,0 0.005816,6.3021e-4 0.007674,0.001892 0.001701,0.001118 0.002552,0.002529 0.002552,0.004231 0,0.001736 -8.6805e-4,0.003215 -0.002587,0.004443 -0.001944,0.001356 -0.004479,0.002042 -0.007639,0.002042 l -0.01515615,0 -0.01211798,-3.125e-4 c -0.0072743,0 -0.01310755,-0.002123 -0.01748253,-0.006354 -0.0039757,-0.003825 -0.0059548,-0.00845 -0.0059548,-0.013868 0,-0.005325 0.0019097,-0.00974 0.0057465,-0.0132655 0.0043055,-0.003995 0.01020827,-0.005995 0.01769086,-0.005995 l 0.06244752,0 z" />
            </g>
            <g
               transform="matrix(1020.611,0,0,1029.591,76.691351,-286.21649)"
               id="g12391">
              <path
                 id="path8328"
                 style="font-style:normal;font-variant:normal;font-weight:normal;font-stretch:normal;letter-spacing:normal;text-anchor:start;fill:#000000;fill-opacity:1;stroke:#ffffff;stroke-width:0.00345658000000000;stroke-linecap:butt;stroke-linejoin:miter;stroke-miterlimit:10.43299960999999954;stroke-opacity:0;stroke-dasharray:none;stroke-dashoffset:0"
                 d="m 0.39038247,0.51840917 0,5.486e-4 -3.473e-5,5.434e-4 -5.208e-5,5.3993e-4 -6.944e-5,5.3645e-4 -1.0417e-4,5.3125e-4 -1.0416e-4,5.2777e-4 -1.3889e-4,5.2431e-4 -1.5625e-4,5.1909e-4 -1.7361e-4,5.1562e-4 -2.0833e-4,5.1042e-4 -2.0834e-4,5.0867e-4 -2.4305e-4,5.0347e-4 -2.6041e-4,4.9826e-4 -2.7778e-4,4.9479e-4 -3.125e-4,4.9132e-4 -3.125e-4,4.8784e-4 -3.4722e-4,4.8264e-4 -3.6458e-4,4.7916e-4 -3.993e-4,4.7569e-4 -3.993e-4,4.7049e-4 -4.3403e-4,4.6701e-4 -4.3402e-4,4.618e-4 -4.6875e-4,4.6007e-4 -5.0347e-4,4.5485e-4 -5.0347e-4,4.4965e-4 -5.3819e-4,4.4618e-4 -5.5555e-4,4.4271e-4 -5.7291e-4,4.3923e-4 -5.9028e-4,4.3403e-4 -6.0763e-4,4.3055e-4 -6.4236e-4,4.2708e-4 -6.5972e-4,4.2187e-4 c -0.00651,0.004069 -0.0153818,0.007222 -0.0266491,0.00946 -0.010677,0.002109 -0.02217,0.00316 -0.0344616,0.00316 -0.0122048,0 -0.0233853,-0.001017 -0.0335588,-0.00305 -0.0108854,-0.002144 -0.0194617,-0.005264 -0.025729,-0.009366 -0.006858,-0.004448 -0.0102777,-0.009691 -0.0102777,-0.0157273 l 0,-0.0476872 0.0542705,0 0,0.0454494 c 0,0.001941 0.001806,0.003479 0.005399,0.004632 0.003368,0.001059 0.007309,0.00158 0.0118402,0.00158 0.004479,0 0.008246,-5.0694e-4 0.011302,-0.001524 0.003403,-0.00112 0.005104,-0.002679 0.005104,-0.004687 l 0,-0.0454494 0.0534372,0 0,0.0476872 z" />
              <path
                 id="path8330"
                 style="font-style:normal;font-variant:normal;font-weight:normal;font-stretch:normal;letter-spacing:normal;text-anchor:start;fill:#73aacd;fill-opacity:1;stroke:#000000;stroke-width:0;stroke-linecap:butt;stroke-linejoin:miter;stroke-miterlimit:10.43299960999999954;stroke-opacity:1;stroke-dashoffset:0"
                 d="m 0.37855658,0.51817655 0,-0.0436664 -0.0290623,0 0,0.0412046 c 0,0.003696 -0.002934,0.006632 -0.008802,0.008809 -0.005295,0.001934 -0.0118055,0.002903 -0.0195485,0.002903 -0.007969,0 -0.0147568,-9.8264e-4 -0.0203471,-0.002957 -0.006215,-0.002203 -0.009323,-0.005127 -0.009323,-0.008755 l 0,-0.0412046 -0.0298956,0 0,0.0436664 c 0,0.008076 0.005972,0.0144721 0.0178992,0.0191856 0.005399,0.002109 0.0113715,0.003682 0.0179165,0.004733 0.006545,0.001052 0.0137673,0.001582 0.0217013,0.001582 0.0159374,0 0.0295484,-0.002137 0.0407983,-0.006417 0.0124478,-0.004746 0.0186631,-0.0111076 0.0186631,-0.0190832 z" />
            </g>
            <g
               transform="matrix(1020.73,0,0,1027.318,47.495854,-261.88677)"
               id="g12416">
              <path
                 id="path8332"
                 style="font-style:normal;font-variant:normal;font-weight:normal;font-stretch:normal;letter-spacing:normal;text-anchor:start;fill:#000000;fill-opacity:1;stroke:#ffffff;stroke-width:0.00346020000000000;stroke-linecap:butt;stroke-linejoin:miter;stroke-miterlimit:10.43299960999999954;stroke-opacity:0;stroke-dasharray:none;stroke-dashoffset:0"
                 d="m 0.56631781,0.52415396 -0.0672565,0 c -0.021111,0 -0.0377428,-0.002293 -0.0499129,-0.00687 -0.009566,-0.003595 -0.0162673,-0.00858 -0.020104,-0.0149548 -0.002431,-0.004068 -0.003663,-0.008917 -0.003663,-0.0145468 l 0,-0.001884 0,-0.00224 0,-0.0356508 0.0551038,0 0,0.0362151 c 0,0.00312 0.001424,0.005743 0.004271,0.00788 0.003333,0.002406 0.00809,0.003608 0.0142534,0.003608 l 0.0673086,0 0,0.0284425 z" />
              <path
                 id="path8334"
                 style="font-style:normal;font-variant:normal;font-weight:normal;font-stretch:normal;letter-spacing:normal;text-anchor:start;fill:#73aacd;fill-opacity:1;stroke:#000000;stroke-width:0;stroke-linecap:butt;stroke-linejoin:miter;stroke-miterlimit:10.43299960999999954;stroke-opacity:1;stroke-dashoffset:0"
                 d="m 0.55444886,0.5207413 -4.9e-7,-0.01419 -0.0550865,0 c -0.009965,0 -0.0177603,-0.002169 -0.0233679,-0.006502 -0.004913,-0.003787 -0.007378,-0.008454 -0.007378,-0.0140055 l 0,-0.0346492 -0.0304422,4.711e-5 -2.8681e-4,0.034622 -1.658e-5,0.001145 2.998e-5,0.002171 c 0,0.004306 7.5049e-4,0.008147 0.002886,0.0118112 0.003316,0.005585 0.008993,0.0100194 0.0169964,0.0132924 0.0103471,0.004172 0.0242186,0.006258 0.041597,0.006258 l 0.0550691,0 z"
                 sodipodi:nodetypes="cccccccccccccc" />
            </g>
          </g>
        </g>
        <g
           id="g1479"
           transform="translate(24,4)">
          <path
             inkscape:label="Base del Conjunto"
             d="m 703.7652,284.50738 c -9.26696,-0.27641 -14.77751,-5.1225 -12.793,-15.10884 3.57921,-18.18306 6.57368,-23.17268 6.5914,-44.24923 0.0177,-45.8953 -15.16731,-47.41912 -15.06099,-69.98937 0.0886,-18.9237 11.64126,-31.38004 11.07425,-50.49866 -0.79733,-26.56051 -29.07659,-31.9116 -51.54406,-42.04677 21.81188,15.73432 26.89718,27.02122 26.29474,38.94598 -2.58695,51.65038 -38.98141,74.51654 -38.98141,127.94234 0,33.49213 9.46185,30.10075 6.39649,46.79542 -0.7442,4.10546 -2.01995,6.49927 -9.49729,7.76617 l -612.964434,0 0,9.4246 993.569804,-0.069 0,-9.4237 -303.0855,0.51106 z"
             style="font-style:normal;font-variant:normal;font-weight:normal;font-stretch:normal;letter-spacing:normal;text-anchor:start;fill:#000000;fill-opacity:1;stroke:#ffffff;stroke-width:3.54330707000000000;stroke-miterlimit:10.43299960999999954;stroke-opacity:0;stroke-dasharray:none"
             id="path6988"
             sodipodi:nodetypes="cccccccsccccccc" />
          <path
             id="path8320"
             style="font-style:normal;font-variant:normal;font-weight:normal;font-stretch:normal;letter-spacing:normal;text-anchor:start;fill:#f6ee4a;stroke:#f6ee4a;stroke-width:0.88594132999999986;stroke-linecap:butt;stroke-linejoin:miter;stroke-miterlimit:10.43299960999999954;stroke-opacity:1;stroke-dashoffset:0;fill-opacity:1"
             d="m 678.4524,81.69576 0.90364,0.72647 0.92132,0.72647 0.93917,0.7442 0.93906,0.79734 0.93906,0.81507 0.93917,0.86823 0.90365,0.92137 0.44293,0.47841 0.44295,0.49613 0.44306,0.51384 0.42518,0.53157 0.42529,0.54928 0.40753,0.567 0.38977,0.58473 0.38988,0.60243 0.37211,0.62017 0.35436,0.63787 0.35435,0.67332 0.3367,0.69103 0.31894,0.70876 0.30119,0.74418 0.26576,0.76191 0.26577,0.79735 0.24811,0.81507 0.23035,0.8505 c 4.92578,19.70334 -12.26142,38.52074 -11.78305,58.57845 0.19493,8.31013 2.268,9.10925 8.77082,23.74677 -6.64459,-11.07426 -13.05882,-13.9394 -11.94247,-27.55633 0.99223,-12.20826 10.7553,-29.96253 12.73977,-46.52963 0.886,-7.42419 -2.03765,-16.3722 -10.68437,-25.46196 z" />
          <path
             sodipodi:type="arc"
             style="fill:#f6ee4a;fill-opacity:1;fill-rule:nonzero;stroke:none;display:inline"
             id="path11605"
             sodipodi:cx="0.66338271"
             sodipodi:cy="0.33527011"
             sodipodi:rx="0.023286717"
             sodipodi:ry="0.048113052"
             d="m 0.68666943,0.33527011 c 0,0.0265721 -0.0104258,0.048113 -0.0232867,0.048113 -0.0128609,0 -0.0232867,-0.021541 -0.0232867,-0.048113 0,-0.0265721 0.0104258,-0.0481131 0.0232867,-0.0481131 0.0128609,0 0.0232867,0.0215409 0.0232867,0.0481131 z"
             transform="matrix(1020.611,0,0,1020.611,-20.93486,-114.6172)" />
        </g>
      </g>
    </g>
  </g>
</svg>
