<?xml version="1.0" encoding="UTF-8" standalone="no"?>
<!-- Created with Inkscape (http://www.inkscape.org/) -->

<svg
   xmlns:dc="http://purl.org/dc/elements/1.1/"
   xmlns:cc="http://creativecommons.org/ns#"
   xmlns:rdf="http://www.w3.org/1999/02/22-rdf-syntax-ns#"
   xmlns:svg="http://www.w3.org/2000/svg"
   xmlns="http://www.w3.org/2000/svg"
   xmlns:xlink="http://www.w3.org/1999/xlink"
   xmlns:sodipodi="http://sodipodi.sourceforge.net/DTD/sodipodi-0.dtd"
   xmlns:inkscape="http://www.inkscape.org/namespaces/inkscape"
   inkscape:export-ydpi="300.00000"
   inkscape:export-xdpi="300.00000"
   inkscape:export-filename="/home/alberto/logotipo_gulic.svg-300dpi.png"
   width="296.99999mm"
   height="105.00000mm"
   id="svg13214"
   sodipodi:version="0.32"
   inkscape:version="0.47 r22583"
   sodipodi:docname="logotipo_gulic-v2-negro-tricolor_traced.svg"
   inkscape:output_extension="org.inkscape.output.svg.inkscape"
   version="1.1">
  <defs
     id="defs13216">
    <inkscape:perspective
       sodipodi:type="inkscape:persp3d"
       inkscape:vp_x="0 : 186.02362 : 1"
       inkscape:vp_y="0 : 1000 : 0"
       inkscape:vp_z="1052.3622 : 186.02362 : 1"
       inkscape:persp3d-origin="526.18109 : 124.01575 : 1"
       id="perspective51" />
    <linearGradient
       id="linearGradient12436">
      <stop
         style="stop-color:#eee68b;stop-opacity:1.0000000;"
         offset="0.0000000"
         id="stop12438" />
      <stop
         style="stop-color:#f6ee4a;stop-opacity:1.0000000;"
         offset="1.0000000"
         id="stop12440" />
    </linearGradient>
    <linearGradient
       inkscape:collect="always"
       xlink:href="#linearGradient12436"
       id="linearGradient13102"
       gradientUnits="userSpaceOnUse"
       gradientTransform="matrix(1.060490,0.000000,0.000000,1.000000,-7.205660e-2,-0.127739)"
       x1="0.73293530"
       y1="0.47202159"
       x2="0.85147620"
       y2="0.47202159" />
    <linearGradient
       id="linearGradient12406">
      <stop
         style="stop-color:#6a9dbd;stop-opacity:1.0000000;"
         offset="0.0000000"
         id="stop12408" />
      <stop
         style="stop-color:#cddacd;stop-opacity:1.0000000;"
         offset="1.0000000"
         id="stop12410" />
    </linearGradient>
    <linearGradient
       inkscape:collect="always"
       xlink:href="#linearGradient12406"
       id="linearGradient13149"
       gradientUnits="userSpaceOnUse"
       gradientTransform="translate(-0.146268,6.377616e-4)"
       x1="0.58384248"
       y1="0.48206176"
       x2="0.70071674"
       y2="0.48206176" />
    <linearGradient
       id="linearGradient10141">
      <stop
         style="stop-color:#f6faf6;stop-opacity:1.0000000;"
         offset="0.0000000"
         id="stop12359" />
      <stop
         id="stop12379"
         offset="1.0000000"
         style="stop-color:#d9ecf2;stop-opacity:1.0000000;" />
    </linearGradient>
    <linearGradient
       inkscape:collect="always"
       xlink:href="#linearGradient10141"
       id="linearGradient13147"
       gradientUnits="userSpaceOnUse"
       gradientTransform="translate(-0.143861,-0.157423)"
       x1="0.17133355"
       y1="0.67282481"
       x2="0.29654428"
       y2="0.67282426" />
    <linearGradient
       id="linearGradient12381">
      <stop
         style="stop-color:#d9ecf2;stop-opacity:1.0000000;"
         offset="0.0000000"
         id="stop12387" />
      <stop
         style="stop-color:#73aacd;stop-opacity:1.0000000;"
         offset="1.0000000"
         id="stop12385" />
    </linearGradient>
    <linearGradient
       inkscape:collect="always"
       xlink:href="#linearGradient12381"
       id="linearGradient13145"
       gradientUnits="userSpaceOnUse"
       gradientTransform="translate(-0.146225,6.272378e-3)"
       x1="0.40763053"
       y1="0.50000000"
       x2="0.52478141"
       y2="0.50282091" />
    <linearGradient
       id="linearGradient12428">
      <stop
         style="stop-color:#e6eecd;stop-opacity:1.0000000;"
         offset="0.0000000"
         id="stop12430" />
      <stop
         style="stop-color:#eeeaac;stop-opacity:1.0000000;"
         offset="1.0000000"
         id="stop12432" />
    </linearGradient>
    <linearGradient
       inkscape:collect="always"
       xlink:href="#linearGradient12428"
       id="linearGradient12848"
       gradientUnits="userSpaceOnUse"
       x1="0.64009599"
       y1="0.33527011"
       x2="0.68666943"
       y2="0.33527011" />
  </defs>
  <sodipodi:namedview
     id="base"
     pagecolor="#ffffff"
     bordercolor="#666666"
     borderopacity="1.0"
     inkscape:pageopacity="0"
     inkscape:pageshadow="2"
     inkscape:zoom="1.2809278"
     inkscape:cx="526.18109"
     inkscape:cy="186.02362"
     inkscape:document-units="mm"
     inkscape:current-layer="g2422"
     borderlayer="top"
     inkscape:window-width="1432"
     inkscape:window-height="828"
     inkscape:window-x="0"
     inkscape:window-y="0"
     showguides="true"
     inkscape:guide-bbox="true"
     showgrid="false"
     showborder="false"
     inkscape:window-maximized="0" />
  <metadata
     id="metadata13219">
    <rdf:RDF>
      <cc:Work
         rdf:about="">
        <dc:format>image/svg+xml</dc:format>
        <dc:type
           rdf:resource="http://purl.org/dc/dcmitype/StillImage" />
        <dc:title></dc:title>
        <dc:date>14/09/2005</dc:date>
        <dc:creator>
          <cc:Agent>
            <dc:title>Alberto Ruiz</dc:title>
          </cc:Agent>
        </dc:creator>
        <dc:rights>
          <cc:Agent>
            <dc:title>Copyleft</dc:title>
          </cc:Agent>
        </dc:rights>
        <dc:publisher>
          <cc:Agent>
            <dc:title>Luis Cabrera Sauco</dc:title>
          </cc:Agent>
        </dc:publisher>
        <dc:identifier>Inkscape</dc:identifier>
        <dc:source>Bitstream Vera Sans Bold</dc:source>
        <dc:language>Español/Spanish</dc:language>
        <dc:subject>
          <rdf:Bag>
            <rdf:li>Gulic</rdf:li>
          </rdf:Bag>
        </dc:subject>
        <dc:coverage>Mundial</dc:coverage>
        <dc:description>Logotipo del Grupo de Usuarios de Linux de Canarias (Spain) http://www.gulic.org/</dc:description>
        <cc:license
           rdf:resource="http://creativecommons.org/licenses/by/2.0/" />
      </cc:Work>
      <cc:License
         rdf:about="http://artlibre.org/licence.php/lalgb.html">
        <cc:permits
           rdf:resource="http://web.resource.org/cc/Reproduction" />
        <cc:permits
           rdf:resource="http://web.resource.org/cc/Distribution" />
        <cc:permits
           rdf:resource="http://web.resource.org/cc/DerivativeWorks" />
        <cc:requires
           rdf:resource="http://web.resource.org/cc/ShareAlike" />
        <cc:requires
           rdf:resource="http://web.resource.org/cc/Notice" />
        <cc:requires
           rdf:resource="http://web.resource.org/cc/Attribution" />
      </cc:License>
    </rdf:RDF>
  </metadata>
  <g
     inkscape:label="Layer 1"
     inkscape:groupmode="layer"
     id="layer1"
     transform="translate(-5.932971,-15.14149)">
    <g
       id="g2422">
      <g
         id="g12367"
         transform="matrix(1020.687,0.000000,0.000000,1025.083,124.3896,-288.8956)">
        <path
           d="M 0.15748704,0.50617926 L 0.14542115,0.50617926 C 0.15243499,0.50851779 0.15786898,0.51172610 0.16174048,0.51580073 C 0.16535157,0.51959931 0.16717448,0.52368783 0.16717448,0.52806280 C 0.16717448,0.53260618 0.16526477,0.53681795 0.16142799,0.54068425 C 0.15740023,0.54478665 0.15161902,0.54802795 0.14408435,0.55040120 C 0.13578579,0.55298452 0.12611571,0.55427444 0.11509148,0.55427444 L 0.077765327,0.55427444 C 0.064067497,0.55427444 0.052209937,0.55244285 0.042170067,0.54878142 C 0.033116307,0.54549151 0.026064267,0.54085960 0.021012217,0.53489262 C 0.016366417,0.52936488 0.014046987,0.52332846 0.014046987,0.51678510 C 0.014046987,0.51020701 0.016434117,0.50401435 0.021215337,0.49821751 C 0.026267387,0.49214810 0.033388877,0.48736688 0.042571107,0.48387385 C 0.052678677,0.48004228 0.064397357,0.47812909 0.077765327,0.47812909 L 0.15748704,0.47812909 L 0.15748704,0.50617926 z "
           style="font-style:normal;font-variant:normal;font-weight:normal;font-stretch:normal;fill:#000000;fill-opacity:1;stroke:none;stroke-width:0.00195526000000000;stroke-linecap:butt;stroke-linejoin:miter;stroke-miterlimit:10.43299960999999954;stroke-dashoffset:0;stroke-opacity:1;letter-spacing:normal;text-anchor:start;stroke-dasharray:none"
           id="path8324" />
        <path
           d="M 0.14601615,0.49545341 L 0.14601615,0.48087190 L 0.078481861,0.48087190 C 0.067804841,0.48087190 0.058412541,0.48260106 0.050304951,0.48606111 C 0.042947361,0.48921386 0.037251221,0.49356106 0.033216521,0.49908880 C 0.029384951,0.50431620 0.027471771,0.50994463 0.027471771,0.51598800 C 0.027471771,0.52188726 0.029317241,0.52735424 0.033013401,0.53237157 C 0.036945671,0.53766841 0.042587991,0.54184026 0.049940371,0.54489059 C 0.057978521,0.54825515 0.067474981,0.54993049 0.078464501,0.54993049 L 0.095634531,0.54993049 L 0.11577329,0.54993049 C 0.12733571,0.54993049 0.13655440,0.54774647 0.14342936,0.54337845 C 0.14959251,0.53941146 0.15268277,0.53458336 0.15268277,0.52889243 C 0.15268277,0.52319628 0.14960987,0.51836819 0.14348144,0.51440815 C 0.13667593,0.51003317 0.12743988,0.50784916 0.11580801,0.50784916 L 0.095686611,0.50784916 L 0.095686611,0.52264073 L 0.11084276,0.52264073 C 0.11410663,0.52264073 0.11665870,0.52327094 0.11851632,0.52453308 C 0.12021770,0.52565113 0.12106839,0.52706258 0.12106839,0.52876396 C 0.12106839,0.53050006 0.12020034,0.53197921 0.11848160,0.53320664 C 0.11653717,0.53456253 0.11400246,0.53524829 0.11084276,0.53524829 L 0.095686611,0.53524829 L 0.083568631,0.53493579 C 0.076294371,0.53493579 0.070461081,0.53281254 0.066086101,0.52858167 C 0.062110431,0.52475704 0.060131281,0.52013207 0.060131281,0.51471370 C 0.060131281,0.50938908 0.062040991,0.50497418 0.065877771,0.50144816 C 0.070183301,0.49745339 0.076086041,0.49545341 0.083568631,0.49545341 L 0.14601615,0.49545341 z "
           style="font-style:normal;font-variant:normal;font-weight:normal;font-stretch:normal;fill:#ffffff;fill-opacity:1;stroke:#000000;stroke-width:0;stroke-linecap:round;stroke-linejoin:round;stroke-miterlimit:10.43299999999999983;stroke-dashoffset:0;stroke-opacity:1;marker-start:none;marker-mid:none;letter-spacing:normal;text-anchor:start"
           id="path8326" />
      </g>
      <g
         id="g12391"
         transform="matrix(1020.611,0.000000,0.000000,1029.591,54.46744,-283.2676)">
        <path
           d="M 0.39038247,0.51840917 L 0.39038247,0.51895777 L 0.39034774,0.51950117 L 0.39029566,0.52004110 L 0.39022622,0.52057755 L 0.39012205,0.52110880 L 0.39001789,0.52163657 L 0.38987900,0.52216088 L 0.38972275,0.52267997 L 0.38954914,0.52319559 L 0.38934081,0.52370601 L 0.38913247,0.52421468 L 0.38888942,0.52471815 L 0.38862901,0.52521641 L 0.38835123,0.52571120 L 0.38803873,0.52620252 L 0.38772623,0.52669036 L 0.38737901,0.52717300 L 0.38701443,0.52765216 L 0.38661513,0.52812785 L 0.38621583,0.52859834 L 0.38578180,0.52906535 L 0.38534778,0.52952715 L 0.38487903,0.52998722 L 0.38437556,0.53044207 L 0.38387209,0.53089172 L 0.38333390,0.53133790 L 0.38277835,0.53178061 L 0.38220544,0.53221984 L 0.38161516,0.53265387 L 0.38100753,0.53308442 L 0.38036517,0.53351150 L 0.37970545,0.53393337 C 0.37319508,0.53800279 0.36432361,0.54115555 0.35305632,0.54339338 C 0.34237930,0.54550274 0.33088632,0.54655308 0.31859473,0.54655308 C 0.30638995,0.54655308 0.29520946,0.54553573 0.28503592,0.54350275 C 0.27415057,0.54135867 0.26557424,0.53823890 0.25930692,0.53413649 C 0.25244932,0.52968861 0.24902920,0.52444558 0.24902920,0.51840917 L 0.24902920,0.47072197 L 0.30329969,0.47072197 L 0.30329969,0.51617133 C 0.30329969,0.51811229 0.30510523,0.51965048 0.30869896,0.52080325 C 0.31206700,0.52186227 0.31600794,0.52238310 0.32053916,0.52238310 C 0.32501830,0.52238310 0.32878564,0.52187616 0.33184117,0.52085880 C 0.33524393,0.51973902 0.33694531,0.51818000 0.33694531,0.51617133 L 0.33694531,0.47072197 L 0.39038247,0.47072197 L 0.39038247,0.51840917 z "
           style="font-style:normal;font-variant:normal;font-weight:normal;font-stretch:normal;fill:#000000;fill-opacity:1;stroke:none;stroke-width:0.00195105000000000;stroke-linecap:butt;stroke-linejoin:miter;stroke-miterlimit:10.43299960999999954;stroke-dashoffset:0;stroke-opacity:1;letter-spacing:normal;text-anchor:start;stroke-dasharray:none"
           id="path8328" />
        <path
           d="M 0.37855658,0.51817655 L 0.37855658,0.47451016 L 0.34949426,0.47451016 L 0.34949426,0.51571476 C 0.34949426,0.51941091 0.34656025,0.52234666 0.34069223,0.52452373 C 0.33539713,0.52645774 0.32888675,0.52742649 0.32114375,0.52742649 C 0.31317505,0.52742649 0.30638690,0.52644385 0.30079666,0.52446991 C 0.29458142,0.52226680 0.29147380,0.51934320 0.29147380,0.51571476 L 0.29147380,0.47451016 L 0.26157816,0.47451016 L 0.26157816,0.51817655 C 0.26157816,0.52625288 0.26755034,0.53264867 0.27947735,0.53736219 C 0.28487662,0.53947155 0.29084880,0.54104445 0.29739390,0.54209480 C 0.30393900,0.54314687 0.31116117,0.54367638 0.31909515,0.54367638 C 0.33503255,0.54367638 0.34864357,0.54153924 0.35989350,0.53725976 C 0.37234134,0.53251326 0.37855658,0.52615219 0.37855658,0.51817655 z "
           style="font-style:normal;font-variant:normal;font-weight:normal;font-stretch:normal;fill:#73aacd;fill-opacity:1;stroke:#000000;stroke-width:0;stroke-linecap:butt;stroke-linejoin:miter;stroke-miterlimit:10.43299999999999983;stroke-dashoffset:0;stroke-opacity:1;letter-spacing:normal;text-anchor:start"
           id="path8330" />
      </g>
      <g
         id="g12416"
         transform="matrix(1020.730,0.000000,0.000000,1027.318,32.71213,-258.8371)">
        <path
           d="M 0.56631781,0.52415396 L 0.49906130,0.52415396 C 0.47795032,0.52415396 0.46131848,0.52186057 0.44914842,0.51728421 C 0.43958251,0.51368875 0.43288116,0.50870441 0.42904438,0.50232945 C 0.42661384,0.49826176 0.42538121,0.49341284 0.42538121,0.48778267 L 0.42538121,0.48589900 L 0.42538121,0.48365943 L 0.42538121,0.44800861 L 0.48048502,0.44800861 L 0.48048502,0.48422366 C 0.48048502,0.48734343 0.48190863,0.48996668 0.48475583,0.49210382 C 0.48808914,0.49451005 0.49284606,0.49571143 0.49900921,0.49571143 L 0.56631781,0.49571143 L 0.56631781,0.52415396 z "
           style="font-style:normal;font-variant:normal;font-weight:normal;font-stretch:normal;fill:#000000;fill-opacity:1;stroke:none;stroke-width:0.00195309000000000;stroke-linecap:butt;stroke-linejoin:miter;stroke-miterlimit:10.43299960999999954;stroke-dashoffset:0;stroke-opacity:1;letter-spacing:normal;text-anchor:start;stroke-dasharray:none"
           id="path8332" />
        <path
           sodipodi:nodetypes="cccccccccccccc"
           d="M 0.55444837,0.51722882 L 0.55444837,0.50303765 L 0.49936191,0.50303765 C 0.48939670,0.50303765 0.48160161,0.50086880 0.47599401,0.49653603 C 0.47108084,0.49274877 0.46861558,0.48808246 0.46861558,0.48253054 L 0.46861558,0.45187092 L 0.43788661,0.45187092 L 0.43788661,0.48255026 L 0.43787003,0.48369560 L 0.43790001,0.48586673 C 0.43790001,0.49017321 0.43865050,0.49401393 0.44078590,0.49767797 C 0.44410185,0.50326275 0.44977890,0.50769739 0.45778232,0.51097037 C 0.46812947,0.51514212 0.48200091,0.51722882 0.49937928,0.51722882 L 0.55444837,0.51722882 z "
           style="font-style:normal;font-variant:normal;font-weight:normal;font-stretch:normal;fill:#73aacd;fill-opacity:1;stroke:#000000;stroke-width:0;stroke-linecap:butt;stroke-linejoin:miter;stroke-miterlimit:10.43299999999999983;stroke-dashoffset:0;stroke-opacity:1;letter-spacing:normal;text-anchor:start"
           id="path8334" />
      </g>
      <g
         id="g1479">
        <path
           id="path6988"
           style="font-style:normal;font-variant:normal;font-weight:normal;font-stretch:normal;fill:#000000;fill-opacity:1;stroke:none;stroke-width:2;stroke-linecap:round;stroke-linejoin:round;stroke-miterlimit:10.43299960999999954;stroke-dashoffset:0;stroke-opacity:1;letter-spacing:normal;text-anchor:start;stroke-dasharray:none"
           d="M 1028.9057,284.50738 L 703.76520,284.50738 C 694.49824,284.23097 688.98769,279.38488 690.97220,269.39854 C 694.55141,251.21548 697.54588,246.22586 697.56360,225.14931 C 697.58132,179.25401 682.39629,177.73019 682.50261,155.15994 C 682.59120,136.23624 694.14387,123.77990 693.57686,104.66128 C 692.77953,78.100770 664.50027,72.749680 642.03280,62.614510 C 663.84468,78.348830 668.92998,89.635730 668.32754,101.56049 C 665.74059,153.21087 629.34613,176.07703 629.34613,229.50283 C 629.34613,262.99496 638.80798,259.60358 635.74262,276.29825 C 634.99842,280.40371 633.72267,282.79752 626.24533,284.06442 L 35.322424,284.06442 L 35.322424,294.69572 L 1028.9057,294.95263 L 1028.9057,284.50738 z "
           inkscape:label="Base del Conjunto" />
        <path
           d="M 678.63449,81.853450 L 679.53814,82.579920 L 680.45955,83.306390 L 681.39861,84.050590 L 682.33767,84.847930 L 683.27684,85.663000 L 684.21591,86.531220 L 685.11955,87.452600 L 685.56250,87.931000 L 686.00555,88.427130 L 686.44849,88.940980 L 686.87368,89.472540 L 687.29897,90.021820 L 687.70650,90.588820 L 688.09636,91.173550 L 688.48613,91.775990 L 688.85826,92.396150 L 689.21262,93.034020 L 689.56697,93.707340 L 689.90367,94.398380 L 690.22261,95.107130 L 690.52379,95.851320 L 690.78956,96.613230 L 691.05533,97.410580 L 691.30344,98.225650 L 691.53379,99.076140 C 696.45967,118.77949 679.27237,137.59688 679.75072,157.65459 C 679.94567,165.96472 682.01873,166.76384 688.52156,181.40136 C 681.87697,170.32710 675.46284,167.46196 676.57907,153.84504 C 677.57132,141.63678 687.33438,123.88250 689.31896,107.31540 C 690.20485,99.891210 687.28131,90.943200 678.63449,81.853450 z "
           style="font-style:normal;font-variant:normal;font-weight:normal;font-stretch:normal;fill:#ebc300;fill-opacity:1.0000000;fill-rule:nonzero;stroke:#ebba00;stroke-width:0.0000000;stroke-linecap:butt;stroke-linejoin:miter;stroke-miterlimit:10.433000;stroke-dashoffset:0.0000000;stroke-opacity:1.0000000;letter-spacing:normal;text-anchor:start"
           id="path8318" />
        <path
           d="M 678.45240,81.695760 L 679.35604,82.422230 L 680.27736,83.148700 L 681.21653,83.892900 L 682.15559,84.690240 L 683.09465,85.505310 L 684.03382,86.373540 L 684.93747,87.294910 L 685.38040,87.773320 L 685.82335,88.269450 L 686.26641,88.783290 L 686.69159,89.314860 L 687.11688,89.864140 L 687.52441,90.431140 L 687.91418,91.015870 L 688.30406,91.618300 L 688.67617,92.238470 L 689.03053,92.876340 L 689.38488,93.549660 L 689.72158,94.240690 L 690.04052,94.949450 L 690.34171,95.693630 L 690.60747,96.455540 L 690.87324,97.252890 L 691.12135,98.067960 L 691.35170,98.918460 C 696.27748,118.62180 679.09028,137.43920 679.56865,157.49691 C 679.76358,165.80704 681.83665,166.60616 688.33947,181.24368 C 681.69488,170.16942 675.28065,167.30428 676.39700,153.68735 C 677.38923,141.47909 687.15230,123.72482 689.13677,107.15772 C 690.02277,99.733530 687.09912,90.785520 678.45240,81.695760 z "
           style="font-style:normal;font-variant:normal;font-weight:normal;font-stretch:normal;fill:none;fill-opacity:1.0000000;stroke:#ebba00;stroke-width:0.88594133;stroke-linecap:butt;stroke-linejoin:miter;stroke-miterlimit:10.433000;stroke-dashoffset:0.0000000;stroke-opacity:1.0000000;letter-spacing:normal;text-anchor:start"
           id="path8320" />
        <path
           transform="matrix(1020.611,0.000000,0.000000,1020.611,-20.93486,-114.6172)"
           d="m 0.68666943,0.33527011 c 0,0.0265721 -0.0104258,0.048113 -0.0232867,0.048113 -0.0128609,0 -0.0232867,-0.021541 -0.0232867,-0.048113 0,-0.0265721 0.0104258,-0.0481131 0.0232867,-0.0481131 0.0128609,0 0.0232867,0.0215409 0.0232867,0.0481131 z"
           sodipodi:ry="0.048113052"
           sodipodi:rx="0.023286717"
           sodipodi:cy="0.33527011"
           sodipodi:cx="0.66338271"
           id="path11605"
           style="fill:#f6ee4a;fill-opacity:1;fill-rule:nonzero;stroke:none;stroke-width:0.10000000000000001;stroke-linecap:round;stroke-linejoin:round;stroke-miterlimit:10.43299999999999983;stroke-opacity:1;display:inline"
           sodipodi:type="arc" />
      </g>
      <g
         transform="matrix(1020.611,0.000000,0.000000,1029.554,-7.843815,-114.2926)"
         id="g12457">
        <path
           id="path8336"
           style="font-style:normal;font-variant:normal;font-weight:normal;font-stretch:normal;fill:#000000;fill-opacity:1;stroke:none;stroke-width:0.00195108000000000;stroke-linecap:butt;stroke-linejoin:miter;stroke-miterlimit:10.43299960999999954;stroke-dashoffset:0;stroke-opacity:1;letter-spacing:normal;text-anchor:start;stroke-dasharray:none"
           d="M 0.84111402,0.38286877 L 0.76139231,0.38286877 C 0.74769448,0.38286877 0.73583692,0.38103718 0.72580226,0.37737575 C 0.71675718,0.37408584 0.70970862,0.36945393 0.70465656,0.36348695 C 0.70000382,0.35795921 0.69767744,0.35192279 0.69767744,0.34537943 C 0.69767744,0.33880134 0.70007326,0.33260868 0.70484754,0.32681184 C 0.70989959,0.32074243 0.71701760,0.31596121 0.72620157,0.31246818 C 0.73630567,0.30863661 0.74804170,0.30672342 0.76139231,0.30672342 L 0.84111402,0.30672342 L 0.84111402,0.33484651 L 0.76656589,0.33484651 C 0.76236453,0.33484651 0.75906594,0.33582393 0.75667012,0.33779093 C 0.75450000,0.33958085 0.75340625,0.34177876 0.75340625,0.34438291 C 0.75340625,0.34705476 0.75453472,0.34935336 0.75675693,0.35127869 C 0.75923955,0.35338111 0.76250342,0.35442624 0.76656589,0.35442624 L 0.84111402,0.35442624 L 0.84111402,0.38286877 z " />
        <path
           id="path8338"
           style="font-style:normal;font-variant:normal;font-weight:normal;font-stretch:normal;fill:#f6ee4a;fill-opacity:1;stroke:#000000;stroke-width:0;stroke-linecap:butt;stroke-linejoin:miter;stroke-miterlimit:10.43299999999999983;stroke-dashoffset:0;stroke-opacity:1;letter-spacing:normal;text-anchor:start"
           d="M 0.83092690,0.37881229 L 0.83092690,0.36381759 L 0.76475710,0.36381759 C 0.75702441,0.36381759 0.75085665,0.36169434 0.74621703,0.35746347 C 0.74200088,0.35363884 0.73990200,0.34901387 0.73990200,0.34359550 C 0.73990200,0.33827088 0.74194565,0.33385598 0.74599610,0.33032996 C 0.75056208,0.32633519 0.75680347,0.32433521 0.76475710,0.32433521 L 0.83092690,0.32433521 L 0.83092690,0.30975370 L 0.75930739,0.30975370 C 0.74798452,0.30975370 0.73802407,0.31148286 0.72944445,0.31494291 C 0.72163812,0.31809566 0.71559924,0.32244286 0.71130944,0.32797060 C 0.70725897,0.33319800 0.70521534,0.33882643 0.70521534,0.34486980 C 0.70521534,0.35076906 0.70718532,0.35623604 0.71110691,0.36125337 C 0.71526784,0.36655021 0.72125148,0.37072206 0.72905782,0.37377239 C 0.73758219,0.37713695 0.74765312,0.37881229 0.75930739,0.37881229 L 0.83092690,0.37881229 z " />
      </g>
      <path
         sodipodi:nodetypes="cccccccccccccccccccccccccccccccccccccccccccccccscccccccccccccccccccccccccccccccccccccccccccccccccccccccccccccccccscccccccsccccccccccscccccccccccccccsccccccccccccccccccccccccccccccccccccccccccccccccccccccccccccccccccsccccccccccscccccccccccccccccccccccccccccccccccccccccccccccccccccccccccscccccccccccccccccccccccccccccccccccccsccsccccccccccccccccccccccccccccccccccccccccccccccccccccccccccccccccccccccccccccccccccccccccccccccccccccccsccccccccccscccc"
         id="text12970"
         d="M 59.172886,369.66168 L 39.519202,369.66168 C 36.898706,369.66168 35.320778,368.56277 34.785411,366.36494 C 34.6727,365.85775 34.616345,365.30829 34.616347,364.71656 L 34.616347,349.79667 C 34.616345,348.50053 35.081271,347.35935 36.011125,346.37312 C 36.940972,345.35876 38.11033,344.85157 39.519202,344.85155 L 58.369832,344.85155 L 58.369832,349.79667 L 39.519202,349.79667 L 39.519202,364.71656 L 54.270031,364.71656 L 54.270031,359.72918 L 44.464322,359.72918 L 44.464322,354.78405 L 59.172886,354.78405 L 59.172886,369.66168 M 87.806111,369.66168 L 80.451829,369.66168 L 68.913215,359.72918 L 68.152427,359.72918 L 68.152427,369.66168 L 63.249573,369.66168 L 63.249573,344.85155 L 82.057937,344.85155 C 83.438604,344.85157 84.593873,345.34468 85.523748,346.33086 C 86.481752,347.28891 86.960766,348.44418 86.960791,349.79667 L 86.960791,354.78405 C 86.960766,358.08081 85.326483,359.72919 82.057937,359.72918 L 76.013901,359.72918 L 87.806111,369.66168 M 82.057937,354.78405 L 82.057937,349.79667 L 68.152427,349.79667 L 68.152427,354.78405 L 82.057937,354.78405 M 111.15147,369.66168 L 96.442904,369.66168 C 94.977677,369.66168 93.780142,369.19676 92.850295,368.2669 C 91.948618,367.30888 91.497781,366.12543 91.497783,364.71656 L 91.497783,344.85155 L 96.442904,344.85155 L 96.442904,364.71656 L 111.15147,364.71656 L 111.15147,344.85155 L 116.05432,344.85155 L 116.05432,364.71656 C 116.05429,366.09725 115.61755,367.26661 114.74408,368.22464 C 113.87055,369.18267 112.67302,369.66168 111.15147,369.66168 M 124.94537,359.72918 L 124.94537,369.66168 L 120.04251,369.66168 L 120.04251,344.85155 L 139.27354,344.85155 C 140.62603,344.85157 141.7813,345.34468 142.73935,346.33086 C 143.69735,347.28891 144.17637,348.44418 144.17639,349.79667 L 144.17639,354.78405 C 144.17637,358.08081 142.54208,359.72919 139.27354,359.72918 L 124.94537,359.72918 M 139.27354,354.78405 L 139.27354,349.79667 L 124.94537,349.79667 L 124.94537,354.78405 L 139.27354,354.78405 M 166.90162,369.66168 L 152.15079,369.66168 C 149.5303,369.66168 147.95237,368.56277 147.417,366.36494 C 147.30429,365.85775 147.24794,365.30829 147.24794,364.71656 L 147.24794,349.79667 C 147.24794,348.50053 147.71286,347.35935 148.64272,346.37312 C 149.57256,345.35876 150.74192,344.85157 152.15079,344.85155 L 166.90162,344.85155 C 168.28229,344.85157 169.43756,345.34468 170.36743,346.33086 C 171.32544,347.28891 171.80445,348.44418 171.80448,349.79667 L 171.80448,364.71656 C 171.80445,368.01331 170.17017,369.66168 166.90162,369.66168 M 166.90162,364.71656 L 166.90162,349.79667 L 152.15079,349.79667 L 152.15079,364.71656 L 166.90162,364.71656 M 207.02525,369.66168 L 187.37157,369.66168 L 187.37157,344.85155 C 194.68495,339.74845 224.19659,369.40729 207.02525,369.66168 M 207.02525,364.71656 C 203.21727,357.05799 197.90465,353.59683 192.27442,349.79667 L 192.27442,364.71656 L 207.02525,364.71656 M 235.80311,369.66168 L 216.14942,369.66168 L 216.14942,344.85155 L 235.80311,344.85155 L 235.80311,349.79667 L 221.09455,349.79667 L 221.09455,354.78405 L 235.80311,354.78405 L 235.80311,359.72918 L 221.09455,359.72918 L 221.09455,364.71656 L 235.80311,364.71656 L 235.80311,369.66168 M 272.29054,369.66168 L 257.58197,369.66168 C 256.11675,369.66168 254.91921,369.19676 253.98936,368.2669 C 253.08769,367.30888 252.63685,366.12543 252.63685,364.71656 L 252.63685,344.85155 L 257.58197,344.85155 L 257.58197,364.71656 L 272.29054,364.71656 L 272.29054,344.85155 L 277.19339,344.85155 L 277.19339,364.71656 C 277.19336,366.09725 276.75662,367.26661 275.88314,368.22464 C 275.00962,369.18267 273.81209,369.66168 272.29054,369.66168 M 299.94769,369.66168 L 282.36504,369.66168 L 282.36504,364.71656 L 299.94769,364.71656 L 299.94769,359.72918 L 286.8875,359.72918 C 285.64769,359.72919 284.60513,359.40515 283.75982,358.75706 C 282.91449,358.10899 282.36504,357.23549 282.11144,356.13657 C 281.99873,355.71392 281.94238,355.26308 281.94238,354.78405 L 281.94238,349.79667 C 281.94238,348.50053 282.4073,347.35935 283.33716,346.37312 C 284.267,345.35876 285.45045,344.85157 286.8875,344.85155 L 303.1599,344.85155 L 303.1599,349.79667 L 286.8875,349.79667 L 286.8875,354.78405 L 299.94769,354.78405 C 301.35653,354.78407 302.52589,355.26308 303.45577,356.2211 C 304.38559,357.17914 304.85052,358.3485 304.85054,359.72918 L 304.85054,364.71656 C 304.85052,366.12543 304.42786,367.2807 303.58256,368.18237 C 302.68087,369.16858 301.46924,369.66168 299.94769,369.66168 M 328.67271,369.66168 L 313.96414,369.66168 C 312.49892,369.66168 311.30138,369.19676 310.37153,368.2669 C 309.46986,367.30888 309.01902,366.12543 309.01902,364.71656 L 309.01902,344.85155 L 313.96414,344.85155 L 313.96414,364.71656 L 328.67271,364.71656 L 328.67271,344.85155 L 333.57556,344.85155 L 333.57556,364.71656 C 333.57554,366.09725 333.13879,367.26661 332.26532,368.22464 C 331.39179,369.18267 330.19426,369.66168 328.67271,369.66168 M 363.15516,369.66168 L 358.25231,369.66168 L 358.25231,359.72918 L 343.50148,359.72918 L 343.50148,369.66168 L 338.59863,369.66168 L 338.59863,349.79667 C 338.59862,348.416 339.03537,347.24664 339.90887,346.28859 C 340.81054,345.33059 342.00808,344.85157 343.50148,344.85155 L 358.25231,344.85155 C 359.43574,344.85157 360.54874,345.38694 361.59132,346.45766 C 362.63386,347.50024 363.15514,348.61324 363.15516,349.79667 L 363.15516,369.66168 M 358.25231,354.78405 L 358.25231,349.79667 L 343.50148,349.79667 L 343.50148,354.78405 L 358.25231,354.78405 M 392.66606,369.66168 L 385.31178,369.66168 L 373.77316,359.72918 L 373.01238,359.72918 L 373.01238,369.66168 L 368.10952,369.66168 L 368.10952,344.85155 L 386.91789,344.85155 C 388.29855,344.85157 389.45382,345.34468 390.3837,346.33086 C 391.3417,347.28891 391.82072,348.44418 391.82074,349.79667 L 391.82074,354.78405 C 391.82072,358.08081 390.18643,359.72919 386.91789,359.72918 L 380.87385,359.72918 L 392.66606,369.66168 M 386.91789,354.78405 L 386.91789,349.79667 L 373.01238,349.79667 L 373.01238,354.78405 L 386.91789,354.78405 M 401.26059,369.66168 L 396.35774,369.66168 L 396.35774,344.85155 L 401.26059,344.85155 L 401.26059,369.66168 M 425.12038,369.66168 L 410.36955,369.66168 C 407.74906,369.66168 406.17113,368.56277 405.63576,366.36494 C 405.52305,365.85775 405.4667,365.30829 405.4667,364.71656 L 405.4667,349.79667 C 405.4667,348.50053 405.93162,347.35935 406.86147,346.37312 C 407.79132,345.35876 408.96068,344.85157 410.36955,344.85155 L 425.12038,344.85155 C 426.50105,344.85157 427.65632,345.34468 428.58619,346.33086 C 429.5442,347.28891 430.02321,348.44418 430.02324,349.79667 L 430.02324,364.71656 C 430.02321,368.01331 428.38893,369.66168 425.12038,369.66168 M 425.12038,364.71656 L 425.12038,349.79667 L 410.36955,349.79667 L 410.36955,364.71656 L 425.12038,364.71656 M 451.84108,369.66168 L 434.25843,369.66168 L 434.25843,364.71656 L 451.84108,364.71656 L 451.84108,359.72918 L 438.78089,359.72918 C 437.54108,359.72919 436.49852,359.40515 435.6532,358.75706 C 434.80788,358.10899 434.25842,357.23549 434.00483,356.13657 C 433.89212,355.71392 433.83576,355.26308 433.83577,354.78405 L 433.83577,349.79667 C 433.83576,348.50053 434.30069,347.35935 435.23054,346.37312 C 436.16039,345.35876 437.34384,344.85157 438.78089,344.85155 L 455.05329,344.85155 L 455.05329,349.79667 L 438.78089,349.79667 L 438.78089,354.78405 L 451.84108,354.78405 C 453.24992,354.78407 454.41928,355.26308 455.34915,356.2211 C 456.27898,357.17914 456.74391,358.3485 456.74393,359.72918 L 456.74393,364.71656 C 456.74391,366.12543 456.32125,367.2807 455.47595,368.18237 C 454.57425,369.16858 453.36263,369.66168 451.84108,369.66168 M 492.32066,369.66168 L 472.66698,369.66168 L 472.66698,344.85155 C 480.08088,339.29625 507.88674,369.43772 492.32066,369.66168 M 492.32066,364.71656 C 489.04574,359.94859 486.44323,355.26469 477.56983,349.79667 L 477.56983,364.71656 L 492.32066,364.71656 M 521.09852,369.66168 L 501.44484,369.66168 L 501.44484,344.85155 L 521.09852,344.85155 L 521.09852,349.79667 L 506.38996,349.79667 L 506.38996,354.78405 L 521.09852,354.78405 L 521.09852,359.72918 L 506.38996,359.72918 L 506.38996,364.71656 L 521.09852,364.71656 L 521.09852,369.66168 M 556.86742,369.66168 L 537.21374,369.66168 L 537.21374,344.85155 L 542.15886,344.85155 L 542.15886,364.71656 L 556.86742,364.71656 L 556.86742,369.66168 M 565.53659,369.66168 L 560.63374,369.66168 L 560.63374,344.85155 L 565.53659,344.85155 L 565.53659,369.66168 M 594.89099,369.66168 L 591.80557,369.66168 L 575.23731,353.51607 L 575.23731,369.66168 L 570.33445,369.66168 L 570.33445,344.85155 L 573.3776,344.85155 L 589.98814,360.99715 L 589.98814,344.85155 L 594.89099,344.85155 L 594.89099,369.66168 M 619.25135,369.66168 L 604.54279,369.66168 C 603.07756,369.66168 601.88003,369.19676 600.95018,368.2669 C 600.0485,367.30888 599.59766,366.12543 599.59767,364.71656 L 599.59767,344.85155 L 604.54279,344.85155 L 604.54279,364.71656 L 619.25135,364.71656 L 619.25135,344.85155 L 624.15421,344.85155 L 624.15421,364.71656 C 624.15418,366.09725 623.71743,367.26661 622.84396,368.22464 C 621.97044,369.18267 620.7729,369.66168 619.25135,369.66168 M 657.55955,369.66168 L 650.83926,369.66168 L 642.85098,360.53223 L 634.86271,369.66168 L 628.10016,369.66168 L 639.89237,357.27775 L 628.10016,344.85155 L 634.86271,344.85155 L 642.85098,353.981 L 650.83926,344.85155 L 657.55955,344.85155 L 645.8096,357.27775 L 657.55955,369.66168 M 692.75389,369.66168 L 673.10021,369.66168 L 673.10021,344.85155 C 680.68465,338.70361 707.66988,369.3831 692.75389,369.66168 M 692.75389,364.71656 C 687.30929,356.21393 683.21611,352.60096 678.00306,349.79667 L 678.00306,364.71656 L 692.75389,364.71656 M 721.53175,369.66168 L 701.87806,369.66168 L 701.87806,344.85155 L 721.53175,344.85155 L 721.53175,349.79667 L 706.82318,349.79667 L 706.82318,354.78405 L 721.53175,354.78405 L 721.53175,359.72918 L 706.82318,359.72918 L 706.82318,364.71656 L 721.53175,364.71656 L 721.53175,369.66168 M 761.40045,369.66168 L 742.59209,369.66168 C 739.94342,369.66168 738.36549,368.56277 737.8583,366.36494 C 737.74559,365.85775 737.68923,365.30829 737.68923,364.71656 L 737.68923,349.79667 C 737.68923,348.50053 738.14007,347.35935 739.04175,346.37312 C 739.97159,345.35876 741.15504,344.85157 742.59209,344.85155 L 761.40045,344.85155 L 761.40045,349.79667 L 742.59209,349.79667 L 742.59209,364.71656 L 761.40045,364.71656 L 761.40045,369.66168 M 789.77748,369.66168 L 784.87462,369.66168 L 784.87462,359.72918 L 770.1238,359.72918 L 770.1238,369.66168 L 765.22094,369.66168 L 765.22094,349.79667 C 765.22094,348.416 765.65769,347.24664 766.53119,346.28859 C 767.43286,345.33059 768.63039,344.85157 770.1238,344.85155 L 784.87462,344.85155 C 786.05805,344.85157 787.17105,345.38694 788.21364,346.45766 C 789.25617,347.50024 789.77745,348.61324 789.77748,349.79667 L 789.77748,369.66168 M 784.87462,354.78405 L 784.87462,349.79667 L 770.1238,349.79667 L 770.1238,354.78405 L 784.87462,354.78405 M 818.43842,369.66168 L 815.353,369.66168 L 798.78473,353.51607 L 798.78473,369.66168 L 793.88188,369.66168 L 793.88188,344.85155 L 796.92503,344.85155 L 813.53556,360.99715 L 813.53556,344.85155 L 818.43842,344.85155 L 818.43842,369.66168 M 847.0677,369.66168 L 842.16485,369.66168 L 842.16485,359.72918 L 827.41402,359.72918 L 827.41402,369.66168 L 822.51116,369.66168 L 822.51116,349.79667 C 822.51116,348.416 822.94791,347.24664 823.82141,346.28859 C 824.72308,345.33059 825.92061,344.85157 827.41402,344.85155 L 842.16485,344.85155 C 843.34827,344.85157 844.46128,345.38694 845.50386,346.45766 C 846.5464,347.50024 847.06768,348.61324 847.0677,349.79667 L 847.0677,369.66168 M 842.16485,354.78405 L 842.16485,349.79667 L 827.41402,349.79667 L 827.41402,354.78405 L 842.16485,354.78405 M 876.5786,369.66168 L 869.22432,369.66168 L 857.6857,359.72918 L 856.92491,359.72918 L 856.92491,369.66168 L 852.02206,369.66168 L 852.02206,344.85155 L 870.83042,344.85155 C 872.21109,344.85157 873.36636,345.34468 874.29623,346.33086 C 875.25424,347.28891 875.73325,348.44418 875.73328,349.79667 L 875.73328,354.78405 C 875.73325,358.08081 874.09897,359.72919 870.83042,359.72918 L 864.78639,359.72918 L 876.5786,369.66168 M 870.83042,354.78405 L 870.83042,349.79667 L 856.92491,349.79667 L 856.92491,354.78405 L 870.83042,354.78405 M 885.17313,369.66168 L 880.27027,369.66168 L 880.27027,344.85155 L 885.17313,344.85155 L 885.17313,369.66168 M 913.85127,369.66168 L 908.94842,369.66168 L 908.94842,359.72918 L 894.19759,359.72918 L 894.19759,369.66168 L 889.29473,369.66168 L 889.29473,349.79667 C 889.29473,348.416 889.73148,347.24664 890.60498,346.28859 C 891.50665,345.33059 892.70418,344.85157 894.19759,344.85155 L 908.94842,344.85155 C 910.13184,344.85157 911.24484,345.38694 912.28743,346.45766 C 913.32996,347.50024 913.85124,348.61324 913.85127,349.79667 L 913.85127,369.66168 M 908.94842,354.78405 L 908.94842,349.79667 L 894.19759,349.79667 L 894.19759,354.78405 L 908.94842,354.78405 M 935.91871,369.66168 L 918.33606,369.66168 L 918.33606,364.71656 L 935.91871,364.71656 L 935.91871,359.72918 L 922.85852,359.72918 C 921.61871,359.72919 920.57615,359.40515 919.73084,358.75706 C 918.88552,358.10899 918.33606,357.23549 918.08247,356.13657 C 917.96975,355.71392 917.9134,355.26308 917.9134,354.78405 L 917.9134,349.79667 C 917.9134,348.50053 918.37833,347.35935 919.30818,346.37312 C 920.23803,345.35876 921.42147,344.85157 922.85852,344.85155 L 939.13093,344.85155 L 939.13093,349.79667 L 922.85852,349.79667 L 922.85852,354.78405 L 935.91871,354.78405 C 937.32756,354.78407 938.49691,355.26308 939.42679,356.2211 C 940.35662,357.17914 940.82154,358.3485 940.82157,359.72918 L 940.82157,364.71656 C 940.82154,366.12543 940.39888,367.2807 939.55359,368.18237 C 938.65189,369.16858 937.44027,369.66168 935.91871,369.66168"
         style="font-size:42.26598740000000021px;font-style:normal;font-variant:normal;font-weight:bold;font-stretch:normal;line-height:125%;writing-mode:lr-tb;text-anchor:start;fill:#000000;fill-opacity:1;stroke:none;stroke-width:1px;stroke-linecap:butt;stroke-linejoin:miter;stroke-opacity:1;font-family:Bitstream Vera Sans"
         transform="scale(1.0899118,0.9175054)" />
    </g>
  </g>
</svg>
